<?xml version="1.0" encoding="UTF-8"?>
<svg width="842px" height="362px" viewBox="0 0 842 362" version="1.1" xmlns="http://www.w3.org/2000/svg" xmlns:xlink="http://www.w3.org/1999/xlink">
    <!-- Generator: Sketch 61.2 (89653) - https://sketch.com -->
    <title>Tracing-2</title>
    <desc>Created with Sketch.</desc>
    <g id="Page-1" stroke="none" stroke-width="1" fill="none" fill-rule="evenodd">
        <g id="A4" transform="translate(0.000000, -65.000000)" fill="#FFBE0B" fill-rule="nonzero">
            <g id="Tracing-2" transform="translate(0.000000, 65.000000)">
                <path d="M580.317326,0.698524558 L581.285379,0.702323278 L581.285379,2.06571074 L575.831436,2.06571074 L575.831436,3.4290982 L594.920238,3.4290982 L594.920238,4.79248566 L562.196578,6.15587311 L562.196578,7.51926057 L607.19161,6.15587311 L607.19161,7.51926057 L552.652177,8.88264803 L552.652177,10.2460355 L601.737667,11.609423 L601.737667,12.9728104 L541.74429,12.9728104 L541.74429,14.3361979 L599.010695,17.0629728 L599.010695,18.4263602 L533.563375,17.0629728 L533.563375,18.4263602 L609.918582,19.7897477 L609.918582,21.1531352 L525.38246,19.7897477 L525.38246,22.5165226 L581.19,26.492 L581.086614,26.4956043 C560.843841,27.0198806 540.952754,26.5738482 520.093095,22.7987265 L518.565031,22.5165226 C521.818963,25.0197306 526.262147,26.8016634 531.387078,28.0622717 L531.65,28.125 L570.866,30.926 L570.736771,30.9289194 C568.052068,30.9646119 565.260852,30.984462 562.418642,30.9665961 L562.021,30.963 L604.464639,33.4236223 L604.464639,34.7870098 L554.015663,35.918894 L503.566687,30.6968474 L503.566687,32.0602348 C543.375019,33.7693774 582.381622,45.4368382 622.189955,34.2032073 C637.351481,29.9247583 660.219752,19.9570657 652.432057,1.27123232 L652.186643,0.702323278 L671.275445,0.702323278 C672.154893,21.5175686 663.044081,26.5019768 648.096185,38.8771721 C679.739965,37.5185565 709.983444,40.6610283 739.449737,53.6861504 C761.38277,63.3814713 778.558601,77.9564922 795.352656,94.776058 C818.818247,118.277177 847.533259,151.623861 841.077154,187.486405 C828.749878,255.976174 728.273243,268.084418 672.638931,261.497893 C658.076902,259.774572 632.510179,261.131142 620.826469,251.565616 C611.393874,253.583429 600.030583,248.369836 590.82978,245.953913 C566.873895,239.663031 534.13387,234.316096 513.792041,219.352369 L513.111088,218.844317 L511.747602,218.844317 C486.786266,249.136059 454.727987,252.293665 423.121022,270.65304 C471.216213,290.64964 525.764649,306.058872 578.329631,307.42734 L579.921894,307.464502 L579.921894,362 C503.421789,362 437.199571,319.194374 369.276899,290.602476 L367.218103,289.740465 L367.218103,291.103852 C424.596219,315.825939 479.220112,351.628261 542.549513,360.379736 L544.471262,360.636613 L544.471262,362 C484.965781,362 428.865326,323.777732 375.647317,301.323125 L374.035532,300.647564 L374.035532,302.010952 C420.302652,321.271571 463.515636,348.567056 512.828538,360.252898 L514.474573,360.636613 L514.474573,362 C496.407023,361.98773 479.231191,354.45365 462.662112,347.82077 C426.805351,333.467915 394.106946,312.64402 358.834157,297.620482 L356.310216,296.557402 L356.310216,297.920789 C401.225158,316.718808 441.711427,348.703 489.834684,360.291717 L491.295314,360.636613 L491.295314,362 C473.425469,361.98773 456.681863,353.702424 440.846338,345.991104 C411.229835,331.568636 381.8445,311.853331 351.227169,299.949545 L349.492787,299.284177 L349.492787,300.647564 L469.479541,360.636613 L469.479541,362 L438.119366,351.670977 L359.037188,310.191277 L359.037188,311.554664 L454.481197,360.636613 L454.481197,362 C441.473542,361.723232 430.395219,354.381391 419.030565,348.702882 C395.733792,337.06266 373.685792,321.205532 349.835966,310.916599 L348.129301,310.191277 L348.129301,311.554664 L439.482852,360.636613 L439.482852,362 C433.834203,361.867206 428.164284,360.669497 422.509221,358.745452 L422.05,358.586 L425.847994,360.636613 L425.847994,362 C419.620136,361.944374 413.377934,360.56817 407.157417,358.29957 L406.256,357.964 L410.84965,360.636613 L410.84965,362 C405.372527,361.950373 399.796034,360.691857 394.193481,358.606714 L393.724,358.428 L397.214791,360.636613 L397.214791,362 C391.369064,361.401234 385.690276,359.534402 380.136792,356.913793 L379.962,356.83 L386.306905,360.636613 L386.306905,362 C380.517762,361.40709 374.893546,359.555405 369.392282,356.944836 L369.163,356.834 L375.399018,360.636613 L375.399018,362 C355.582115,361.533721 320.82277,337.859862 307.224726,323.825151 C281.846178,335.82716 262.279426,361.480361 233.119589,361.992224 L232.233005,362 L232.233005,360.636613 C272.218591,334.158265 310.911592,303.707006 354.94673,284.097404 C392.795734,267.243208 439.540119,260.555793 473.569998,236.509728 C507.44444,212.574098 519.554922,168.806634 546.224705,138.404457 C578.194357,101.961383 626.959428,80.2820222 675.365902,79.7841131 C692.634791,79.6063853 708.932854,84.8987219 725.87391,86.481456 L727.178364,86.5957332 L727.178364,85.2323458 L665.821501,77.052021 L665.821501,75.6886335 L727.178364,82.5055708 L727.178364,81.1421834 L669.911959,71.5984712 L669.911959,70.2350837 L728.54185,78.4154085 L728.54185,77.052021 L676.729388,67.5083088 L676.729388,66.1449213 L724.451392,72.9618586 L724.451392,71.5984712 L680.819846,63.4181464 L680.819846,62.0547589 L725.814878,68.8716962 L725.814878,67.5083088 L659.004072,57.9645966 L659.004072,56.6012091 L716.270477,62.0547589 L716.270477,60.6913715 L702.635619,57.9645966 L702.635619,56.6012091 L717.633963,59.327984 L717.633963,57.9645966 L672.638931,49.7842718 L672.638931,48.4208844 L706.726077,52.5110467 L706.726077,51.1476593 L690.364246,48.4208844 L690.364246,47.0574969 L710.816534,49.7842718 L710.816534,48.4208844 C690.529228,45.6892012 671.537234,41.6696623 650.823157,43.0893577 C609.017318,45.9546528 568.474067,65.8085736 537.653833,93.6441737 C512.763399,116.124115 495.958436,145.112323 468.116055,164.689203 C435.115607,187.892695 395.922207,199.478761 359.037188,214.770515 C333.76516,225.24683 310.259037,239.700603 285.272237,250.465481 L282.681981,251.565616 L282.681981,255.655778 L281.318495,255.655778 L282.681981,252.929003 C270.42697,258.058067 259.738605,266.508342 247.231349,271.068873 C217.803234,281.797369 180.678242,278.417532 155.877798,257.933999 C126.212437,233.433926 130.08201,203.949309 129.970204,169.762368 C129.91216,151.998261 122.66454,136.286644 142.982264,126.430834 L143.606426,126.13397 L143.606426,124.770582 C110.569164,129.036758 78.1713767,140.16868 46.7989311,150.905356 C32.844608,155.681303 16.8513282,158.444889 9.00105845,172.489143 C-7.99383807,202.894047 21.1197206,234.753685 31.9899751,261.109328 C41.269587,283.607948 38.2032437,307.405876 43.409169,330.642088 C46.0697893,342.517786 53.8545485,350.702334 58.7484165,361.290495 L59.0703036,362 L52.2528745,362 C34.53124,332.670809 40.4396332,304.763631 31.0231273,273.379815 C20.6806781,238.910653 -9.36482308,212.932669 2.88964223,173.852531 C7.85395782,158.020875 27.1825967,152.236022 41.3449878,147.273292 C71.1507882,136.829744 102.703214,126.285715 134.062025,121.866021 C146.735626,120.079711 159.567391,117.465416 172.239628,120.897198 C187.885628,125.13447 198.289025,138.369009 210.417232,148.215393 C236.616612,169.485601 265.364347,189.331068 294.953354,205.627639 C304.199151,210.718528 315.561078,220.436753 326.313528,221.617447 C335.210273,222.593632 347.030332,214.586458 354.94673,211.085279 C374.810452,202.296358 402.065596,187.044068 423.695696,184.83461 L424.484508,184.75963 L425.847994,180.669468 C404.171296,171.645206 383.282693,160.371355 361.76416,150.865818 C354.207721,147.526882 344.284271,140.08824 335.857929,140.310472 C327.509305,140.531341 319.676079,147.795469 312.678669,151.612954 C290.06662,163.947521 257.614294,182.087391 236.732508,158.802096 C223.656679,144.219304 207.065783,112.905294 223.152189,94.9190773 C229.544211,87.7719276 245.982396,84.4470346 249.511098,75.5456142 C253.56065,65.3332968 244.564371,49.9339718 246.560514,38.8771721 C247.89673,31.4866577 253.953334,28.3672272 259.381372,24.3164668 C270.124835,16.2998753 291.88118,-3.72125301 306.775502,1.88785383 L307.224726,2.06571074 L264.956665,23.8799101 L264.956665,25.2432975 C281.842074,17.3599656 302.657831,1.52037071 321.564325,0.723966762 L322.22307,0.702323278 L322.22307,2.06571074 L266.320151,33.4236223 L309.951698,11.2570146 L335.857929,0.702323278 L335.857929,2.06571074 C306.826445,15.7953364 275.763364,31.1166626 252.257969,52.995761 L251.321807,53.8744342 L254.048778,64.7815339 L255.412264,64.7815339 C257.991679,59.3647028 262.047088,54.5975297 267.042833,50.3121824 L267.313,50.083 L298.17,31.749 L298.585898,31.553948 C310.367561,26.0202371 322.196715,21.0896903 331.089271,15.8273304 L331.767471,15.4218633 C341.237267,9.70071232 349.792082,1.33350868 361.182523,0.726452036 L361.76416,0.702323278 L361.76416,2.06571074 C337.378215,17.0434763 313.559481,32.7895108 288.135924,46.0412279 C275.729567,52.5080473 259.48636,57.7435915 254.048778,71.5984712 C277.928869,51.9562844 305.862604,41.5086463 331.767471,24.3333728 C343.829439,16.3356409 358.608653,1.87904419 373.477898,0.738801706 L374.035532,0.702323278 L374.035532,2.06571074 C346.727638,19.1904026 320.529621,37.9064403 292.226382,53.4494663 C276.795813,61.9231921 260.988921,64.9017846 254.048778,82.5055708 C239.548107,87.0057038 223.464428,94.3716773 221.788703,111.136707 C219.679391,132.223403 243.413589,173.124482 267.683637,165.366807 C288.22046,158.80346 306.512986,146.486618 324.950042,135.694042 C373.491501,107.276958 416.84626,72.409414 464.025597,42.0237341 C487.62072,26.8271448 515.00906,6.83935288 543.107776,1.21888352 C554.786714,-1.11706476 568.334849,0.606208284 580.317326,0.698524558 Z M384.812,338.479 L384.974688,338.58353 C396.866383,346.236246 409.223406,354.060609 421.661077,358.45144 L422.05,358.586 L384.812,338.479 Z M341.875,325.628 L342.010732,325.721284 C357.819372,336.624076 375.697241,351.462213 393.352912,358.287791 L393.724,358.428 L341.875,325.628 Z M367.533,335.436 L367.693866,335.547195 C380.211397,344.213151 393.166164,353.003424 406.224507,357.952641 L406.256,357.964 L367.533,335.436 Z M350.542,345.48 L350.573249,345.502877 C356.503701,349.666379 362.527783,353.607539 368.705261,356.614598 L369.163,356.834 L350.542,345.48 Z M361.816,345.943 L362.476213,346.396761 C368.029185,350.199072 373.66918,353.788024 379.443257,356.582328 L379.962,356.83 L361.816,345.943 Z M331.767471,326.551926 L331.767471,327.915314 L361.816,345.943 C351.827316,339.066287 342.120216,331.57713 332.414519,326.862113 L331.767471,326.551926 Z M319.496099,325.188539 L319.496099,326.551926 L350.542,345.48 L349.914692,345.039387 C339.822634,337.919617 329.995919,330.230995 320.138988,325.493299 L319.496099,325.188539 Z M357.673702,322.461764 L357.673702,323.825151 L384.813,338.479 L384.164616,338.062062 C375.261857,332.329773 366.625763,326.740125 358.41862,322.814054 L357.673702,322.461764 Z M335.857929,315.644826 L335.857929,317.008214 L367.533,335.436 L366.800504,334.928463 C356.386737,327.713639 346.282123,320.650713 336.679754,316.03446 L335.857929,315.644826 Z M330.403985,318.371601 L341.875,325.628 L341.259513,325.205126 C337.761208,322.810715 334.366883,320.620008 331.101685,318.764119 L330.403985,318.371601 Z M139,202 C141.322112,211.681647 141.190236,221.490471 146.287191,230.411765 C162.325809,258.488 198.103742,271 228.730337,271 L228.730337,269.647059 L170.269663,223.362941 L139,202 Z M762.300136,111 C751.496949,139.102779 726.880543,146.834301 698.343747,149.12281 C653.749815,152.698096 612.889847,137.644975 569.070195,134.075118 L569.070195,135.432478 C622.585363,142.621056 669.4722,157.298188 724.198457,150.363437 L724.198457,151.720797 C672.079443,158.434299 627.214717,147.758663 575.874066,140.861918 L575.874066,142.219277 C622.541818,151.828028 665.757286,158.507596 713.312263,158.507596 L713.312263,159.864956 L639.830455,158.124821 L560.90555,142.219277 L560.90555,143.576637 C615.914848,156.156649 666.162797,167.041318 722.837683,162.579676 L722.837683,163.937036 L664.324391,166.529593 L579.956389,153.078157 L579.956389,154.435516 C615.259445,161.723562 650.885781,170.931916 687.130533,172.000555 L688.303,172.031 L686.864459,172.063447 C666.110687,172.484519 645.499161,171.099303 623.501164,167.418664 C602.255396,163.863738 580.830006,154.93231 559.544775,153.078157 L559.544775,154.435516 C618.515287,171.128328 675.394289,181.303098 736.445425,173.438555 L736.445425,174.795915 C701.77698,179.453017 670.601643,180.695001 635.748132,175.766427 C613.906345,172.677076 592.353042,164.365961 570.430969,162.579676 L570.430969,163.937036 C609.901587,172.941761 650.746586,184.286575 691.539876,184.286575 C711.163601,184.286575 729.551743,178.96301 748.692393,176.153275 L748.692393,177.510635 C720.367878,182.312974 694.823424,187.523878 665.685165,185.532631 C629.606958,183.069023 596.199951,170.474081 560.90555,165.294396 L560.90555,166.651755 C598.8521,177.601578 638.211134,187.937873 677.932133,189.673937 C698.483907,190.571151 717.55924,187.261908 737.8062,185.654794 L737.8062,187.012154 L672.489036,192.210842 L567.709421,173.438555 L567.709421,174.795915 C609.775035,183.455871 650.790131,196.475667 694.261424,196.459379 C714.777817,196.451234 734.06271,191.313627 754.13549,188.369514 L754.13549,189.726874 C731.707209,193.018471 710.450555,199.06008 687.457553,199.221606 C637.688596,199.573162 586.066265,184.594696 539.133162,169.366475 C547.093691,179.843936 575.646817,182.230175 588.121034,185.49734 C617.343661,193.15285 647.60864,200.565392 677.932133,201.890176 C698.147795,202.772459 717.755191,199.64103 737.8062,199.228393 L737.8062,200.585753 L656.159746,203.069721 L564.987872,185.654794 L564.987872,187.012154 C604.046175,195.053154 641.862091,206.923266 682.014456,208.676975 C708.495123,209.833446 732.405287,204.374144 758.217813,200.585753 L758.217813,201.943113 C682.483923,219.261667 605.914518,208.017298 533.690065,180.225354 C542.15272,191.475153 574.618072,196.029096 588.121034,199.400777 C628.760557,209.547043 671.165003,218.273509 713.312263,215.394549 L714.852664,215.278116 L715.628,215.208 L715.462896,215.226096 C693.443633,217.545516 671.854545,218.253889 647.9951,215.124434 C620.737432,211.549148 593.564131,201.446319 566.348647,199.228393 L566.348647,200.585753 C614.906514,211.690314 665.702855,225.619541 716.033812,222.181348 C732.416173,221.062884 747.720801,216.092232 763.66091,212.801992 L763.66091,214.159352 C747.211871,217.955887 731.745311,223.730096 714.673038,224.896068 C648.951725,229.390287 590.125455,207.965718 528.246968,191.084233 L528.246968,192.441593 C554.218705,206.237799 585.328725,212.349991 613.975745,217.703418 C648.36387,224.130517 682.165502,230.575262 717.394586,229.037373 C729.798043,228.495787 741.839534,224.662602 754.13549,223.660871 L754.13549,225.018231 C727.306466,228.955932 702.724079,233.562811 675.210585,231.682868 C635.120815,228.945073 597.523984,215.856051 558.184001,210.087272 L558.184001,211.444632 C609.551868,225.984671 663.720207,238.168333 717.394586,235.824173 C732.980894,235.142778 747.141111,229.965807 762.300136,227.73295 L762.300136,229.09031 C676.88978,248.621362 602.618723,229.335992 521.443097,201.943113 C524.956616,207.063074 532.137422,208.400074 537.772388,210.628858 C551.619626,216.104448 565.654652,220.380132 579.956389,224.446782 C643.501824,242.5146 705.085022,248.876545 769.104007,231.80503 L769.104007,233.16239 C735.769121,242.239056 704.563846,247.634561 669.767488,245.256467 C635.827057,242.938096 603.802596,232.214953 570.430969,227.73295 L570.430969,229.09031 C646.850689,246.566319 720.533892,263.365005 793.597943,225.018231 C775.465626,239.881321 749.727943,246.573106 726.920006,249.818553 C674.728871,257.243312 619.139883,247.390236 569.070195,232.183734 C551.374687,226.809946 534.171779,215.922562 516,212.801992 C534.3133,226.628059 564.700749,233.596745 586.76026,239.098125 C648.705424,254.55031 722.70977,268.151056 782.711749,238.225342 C796.54538,231.325882 809.923151,221.664194 818.63891,208.729912 C845.961896,168.178785 800.823654,122.091259 762.300136,111 Z M754.13549,208.729912 L754.13549,210.087272 C742.677842,211.768988 731.693597,213.369474 720.865438,214.627078 L720.66,214.65 L720.970861,214.611912 C732.131073,213.129896 743.012219,210.361257 754.13549,208.729912 Z M713.212,170.611 L712.89191,170.662699 C708.082858,171.408755 703.246194,171.964556 698.343747,172.060835 C695.13417,172.123816 691.929645,172.115364 688.729968,172.042388 L688.303,172.031 L688.383304,172.02942 C696.485399,171.830828 704.614836,171.358972 712.862465,170.642923 L713.212,170.611 Z M736.445425,166.651755 L736.445425,168.009115 C728.96497,169.013934 721.640217,169.852656 714.410303,170.505809 L713.213,170.611 L714.202814,170.454714 C721.627714,169.251698 728.994952,167.652738 736.445425,166.651755 Z M511.747602,6.15587311 L513.111088,7.51926057 C478.396738,27.798831 445.769886,49.4661935 413.576621,73.6098767 C370.085773,106.225862 321.792073,145.12479 267.953326,158.459058 L266.320151,158.855269 L266.320151,157.491881 C355.560299,120.3408 426.083877,50.014957 511.747602,6.15587311 Z M510.384116,2.06571074 C462.896631,21.8349652 421.735721,58.302444 380.852961,88.6702636 C346.104994,114.48162 305.927608,138.006971 264.973928,151.584442 L263.593179,152.038331 L263.593179,150.674944 C327.911533,120.058306 384.759348,78.0685627 443.57331,38.4269816 C459.082961,27.9730719 474.769866,17.9599454 491.295314,9.18247057 C496.983777,6.16124486 503.746667,0.245641651 510.384116,2.06571074 Z M620.93617,102.73508 C606.676426,107.544589 583.810723,116.960725 576,130.476083 C620.490894,139.677333 665.04034,150.403938 710.808511,144.119692 C731.302128,141.30638 756.519489,133.656681 757.106383,108.64631 C709.701447,92.5778234 669.352851,86.4058643 620.93617,102.73508 Z M495.385772,2.06571074 C451.912389,20.2597074 414.555604,55.5009554 376.762504,82.8526893 C356.690629,97.3794463 335.60432,107.274776 314.042155,119.033993 C297.591722,128.005688 284.563245,138.931065 265.925723,143.621025 L264.956665,143.858007 L264.956665,142.494619 L367.218103,82.9211313 L435.392395,34.8606327 L477.660456,8.3082529 L495.385772,2.06571074 Z M481.750913,2.06571074 C438.118003,25.0218834 400.935744,57.5568074 360.400674,85.1934892 C347.056238,94.2916464 332.057894,99.5232368 318.132613,107.506279 C299.286512,118.310307 283.978656,128.680232 263.593179,137.041069 C270.711939,123.842252 298.407063,114.60612 311.315184,106.769914 C351.760264,82.2165327 389.869693,54.6196618 429.938451,29.5964574 C441.394459,22.441809 467.731552,-1.77826068 481.750913,2.06571074 Z M468.116055,2.06571074 C415.915,29.5585552 370.760439,68.8012091 319.496099,97.9614764 C300.76453,108.616077 285.134892,122.378519 263.593179,127.497357 C269.509344,116.470961 297.402174,106.958607 308.588212,100.229608 C346.805356,77.2398958 383.309963,51.9880513 420.394051,27.2673826 C430.264325,20.6872657 456.154194,-2.0350997 468.116055,2.06571074 Z M455.485468,1.93612571 L455.844682,2.06571074 L322.22307,88.2368427 L263.593179,120.68042 C267.412303,107.696199 292.062764,100.622672 303.134269,94.1974363 C340.210175,72.6814098 374.564565,47.1747482 410.84965,24.4585317 C420.654967,18.3195825 443.520457,-2.09199782 455.485468,1.93612571 Z M488.29771,40.0258297 C481.056779,40.2318095 475.234412,45.3132376 469.274809,48.8821349 C453.905664,58.0852161 427.696183,70.2572324 419,86.5543325 L512.755725,114 C533.20942,86.8886208 564.666504,61.5870089 597,50.8749648 C585.322656,44.5295265 561.579359,50.3185039 548.083969,49.3798621 C528.461847,48.0151263 507.797542,39.47129 488.29771,40.0258297 Z M442.209824,2.06571074 C384.553462,40.0930411 325.225466,84.6057329 262.229693,112.500095 C265.773393,100.530235 289.983448,92.9408021 300.407297,86.977618 C331.523407,69.1779131 360.061166,47.5427265 390.397362,28.5486941 C400.582601,22.1715856 414.904657,8.8650467 427.21148,8.88264803 C430.256144,3.33597883 435.921427,-0.358122215 442.209824,2.06571074 Z M429.581848,1.92814929 L429.938451,2.06571074 L260.866208,105.683158 C265.162551,91.3474112 284.36725,86.7643842 296.316839,79.982895 C328.417386,61.7643574 358.055478,40.6373053 389.033876,20.7333482 C398.535477,14.6288176 417.738997,-2.39466196 429.581848,1.92814929 Z M415.968261,1.93593428 L416.303593,2.06571074 L309.951698,69.6553714 L259.502722,96.1394454 C264.059491,83.4242213 284.987636,77.161092 296.316839,71.5647955 C325.686324,57.0564442 352.382014,36.9954248 379.489475,18.7787959 C388.212213,12.9172615 404.846156,-2.15221289 415.968261,1.93593428 Z M402.668735,2.06571074 C354.387701,30.536513 309.625825,65.4793156 258.139236,87.9591207 C265.926104,73.0751561 284.899009,67.8052546 299.043811,60.7335002 C323.084793,48.7136036 345.201897,33.3557256 367.218103,18.0455661 C375.670352,12.1676619 391.923103,-2.30500951 402.668735,2.06571074 Z M387.670391,0.702323278 C380.738429,8.84919051 369.30969,14.5244817 360.400674,20.4629884 C340.034286,34.0393281 319.217948,47.2569605 297.680325,58.9072427 C285.17888,65.669376 267.662317,70.9145256 258.559707,81.9824683 L258.139236,82.5055708 L256.77575,82.5055708 C261.110272,69.7561257 274.222915,64.5842517 285.408953,58.9913637 C307.474244,47.9592414 327.970163,36.7997787 348.129301,22.5176133 C359.35488,14.5640199 373.511954,1.64297882 387.670391,0.702323278 Z M347.790689,1.93544902 L348.129301,2.06571074 L298.17,31.749 L297.67976,31.9808235 C286.808438,37.1179839 276.042778,42.7895103 267.729849,49.7307876 L267.313,50.083 L254.048778,57.9645966 C264.7207,33.2541178 299.350749,24.5876645 321.554083,12.5966077 L322.22307,12.2322047 C329.590968,8.18394941 338.979228,-1.28761154 347.790689,1.93544902 Z M586.739323,30.6968474 L586.739323,32.0602348 L570.866,30.926 L571.466281,30.9188087 C577.0383,30.838534 582.122593,30.6976912 586.211653,30.696231 L586.739323,30.6968474 Z M540.469,29.714 L540.638931,29.7362866 C547.369523,30.5993046 554.644307,30.8996439 561.642271,30.9607721 L562.021,30.963 L540.469,29.714 Z M510.384116,26.606685 L510.384116,27.9700725 L540.469,29.714 L539.893369,29.6380637 C537.168158,29.2693023 534.538319,28.8051585 532.059372,28.2237589 L531.65,28.125 L510.384116,26.606685 Z M612.645554,23.8799101 L612.645554,25.2432975 C602.426336,25.6820486 592.451714,26.1773962 582.568439,26.4555452 L581.451,26.485 L612.645554,23.8799101 Z M611.282068,18.4263602 L615.372525,19.7897477 L611.282068,19.7897477 L611.282068,18.4263602 Z M603.101153,15.6995853 L608.555096,17.0629728 L603.101153,17.0629728 L603.101153,15.6995853 Z M611.282068,14.3361979 L615.372525,15.6995853 L611.282068,15.6995853 L611.282068,14.3361979 Z M522.655488,3.4290982 L514.474573,6.15587311 L514.474573,4.79248566 L522.655488,3.4290982 Z M608.555096,4.79248566 L612.645554,6.15587311 L608.555096,6.15587311 L608.555096,4.79248566 Z" id="Combined-Shape"></path>
                <path d="M262.03292,25 C257.817237,28.5830737 246.701479,36.9720421 252.776401,42.7894737 L251.454041,51 L252.776401,51 L266,33.2105263 L254.098761,42.7894737 L252.776401,42.7894737 L264.67764,25 L262.03292,25 Z" id="Path"></path>
                <path d="M627.625,28 L629,29.25 L627.625,28 M617.542125,30.916625 L618.457875,31.333375 L617.542125,30.916625 M607,31.75 L607,33 L613.875,33 L613.875,31.75 L607,31.75 Z" id="Shape"></path>
                <path d="M656.36,44 L657.72,45.4 L656.36,44 M660.44,44 L660.44,45.4 L671.32,45.4 L671.32,44 L660.44,44 M672.68,44 L674.04,45.4 L672.68,44 M644.12,45.4 L644.12,46.8 L650.92,46.8 L650.92,45.4 L644.12,45.4 M683.56,45.4 L683.56,46.8 L689,46.8 L683.56,45.4 M635.96,46.8 L637.32,48.2 L635.96,46.8 M639.58712,47.26662 L640.49288,47.73338 L639.58712,47.26662 M628.70712,48.66662 L629.61288,49.13338 L628.70712,48.66662 M650.92,48.2 L650.92,49.6 L659.08,49.6 L659.08,48.2 L650.92,48.2 M661.8,48.2 L661.8,49.6 L665.88,49.6 L661.8,48.2 M621,49.6 L621,51 L625.08,51 L621,49.6 M642.76,49.6 L642.76,51 L648.2,51 L642.76,49.6 Z" id="Shape"></path>
                <polygon id="Path" points="711 50 711 51.25 729 55 729 53.75"></polygon>
                <path d="M606.909091,53.375 L606.909091,54.75 L619.181818,52 L606.909091,53.375 M626,52 L626,53.375 L630.090909,53.375 L626,52 M649.181818,52 C615.921364,62.6057875 574.922273,66.3680625 551,96 L594.636364,69.6999625 L650.545455,53.375 L649.181818,52 M653.272727,52 L653.272727,53.375 L671,53.375 L671,52 L653.272727,52 M676.454545,52 L676.454545,53.375 L686,53.375 L686,52 L676.454545,52 Z" id="Shape"></path>
                <polygon id="Path" points="709 53 709 54.3333333 720 57 720 55.6666667"></polygon>
                <path d="M621.229029,54.416625 L622.1424,54.833375 L621.229029,54.416625 M687.514286,54 L687.514286,55.25 L693,55.25 L687.514286,54 M597,57.75 L597,59 L605.228571,56.5 L597,57.75 M612.085714,56.5 L612.085714,57.75 L618.942857,56.5 L612.085714,56.5 Z" id="Shape"></path>
                <path d="M729.714286,55 L731,56.3333333 L729.714286,55 M722,56.3333333 L722,57.6666667 L728.428571,59 L728.428571,57.6666667 L722,56.3333333 Z" id="Shape"></path>
                <path d="M556.72973,86.4583506 L611.324324,59.3750519 C596.995973,56.3902015 565.492162,75.9647911 556.72973,86.4583506 M554,100 C587.032459,83.2730839 615.515824,59.6993744 655,59.3750519 C646.937743,56.019702 635.876878,59.6085099 627.702703,61.6298719 C603.705649,67.5639581 569.491216,79.9633693 554,100 Z" id="Shape"></path>
                <path d="M734,57 L736,59 L734,57 Z" id="Path"></path>
                <polygon id="Path" points="577 66.6666667 577 68 596 60"></polygon>
                <path d="M719,59 L719.922225,59.6668 L719,59 M730.077775,59 L731,59.6668 L730.077775,59 Z" id="Shape"></path>
                <polygon id="Path" points="665 62.5 665 64 680 61"></polygon>
                <path d="M723,61 L723,62.5 L729.666667,64 L729.666667,62.5 L723,61 M733.666667,61 L735,62.5 L733.666667,61 M741.666667,61 L743,62.5 L741.666667,61 Z" id="Shape"></path>
                <path d="M652,62 L653.285714,64 L652,62 M654.571429,62 L654.571429,64 L661,64 L661,62 L654.571429,62 Z" id="Shape"></path>
                <polygon id="Path" points="716 62 716 63.5 724 65 724 63.5"></polygon>
                <path d="M643.548387,64 L644.903226,65.3333333 L643.548387,64 M630,66.6666667 L630,68 L640.83871,66.6666667 L630,66.6666667 M670.645161,65.3333333 L672,66.6666667 L670.645161,65.3333333 Z" id="Shape"></path>
                <path d="M725,64 L726.375,66 L725,64 M734.625,64 L736,66 L734.625,64 Z" id="Shape"></path>
                <path d="M615.555556,75.9102141 L615.555556,77.2647034 L669,67.7832783 C654.90437,61.9393343 629.608704,71.9975009 615.555556,75.9102141 M558,103 C581.057852,89.8892209 601.891593,73.1326984 629.259259,69.1377676 C622.795222,66.8520669 614.955333,70.6709141 608.703704,72.7507324 C591.465815,78.4860464 569.278148,88.4678198 558,103 M574.444444,69.1377676 L567.592593,73.2012355 L567.592593,74.5557248 L575.814815,70.4922569 L574.444444,69.1377676 Z" id="Shape"></path>
                <polygon id="Path" points="725 68 725 69.5 732 71 732 69.5"></polygon>
                <path d="M646.334,73.6666 L647.666,74.3334 L646.334,73.6666 Z" id="Path"></path>
                <path d="M725,73 L727,75 L725,73 Z" id="Path"></path>
                <path d="M564.333333,74 L525,110 L552.126437,85.7692308 L564.333333,74 M636.218391,74 L636.218391,75.3846154 L643,75.3846154 L643,74 L636.218391,74 Z" id="Shape"></path>
                <path d="M730,74 L731.320053,76 L730,74 M740.120845,74.6666 L741,75.3334 L740.120845,74.6666 Z" id="Shape"></path>
                <polygon id="Path" points="623 78.5 623 80 636 77"></polygon>
                <path d="M734,75 L736,77 L734,75 Z" id="Path"></path>
                <path d="M552,114 C572.827867,101.012435 590.149289,86.0086117 614,78.2507494 C607.816533,76.9549765 600.244267,80.9685174 594.711111,83.7092474 C579.963378,91.0148818 561.893822,100.586056 552,114 Z" id="Path"></path>
                <path d="M749,77 L751,79 L749,77 Z" id="Path"></path>
                <path d="M646.334,78.6666 L647.666,79.3334 L646.334,78.6666 Z" id="Path"></path>
                <polygon id="Path" points="728 78 728 80 732 80"></polygon>
                <path d="M619,79.6666 L619.922172,80.3334 L619,79.6666 M638.846074,79 L638.846074,81 L643,81 L638.846074,79 Z" id="Shape"></path>
                <path d="M735,79.6666 L735.89708,80.3334 L735,79.6666 M746.22427,79 L747.571236,81 L746.22427,79 M755.653034,79 L757,81 L755.653034,79 Z" id="Shape"></path>
                <path d="M615,81 L617,83 L615,81 Z" id="Path"></path>
                <path d="M738.334,81.6666 L739.666,82.3334 L738.334,81.6666 Z" id="Path"></path>
                <polygon id="Path" points="600 86.6666667 600 88 614 84"></polygon>
                <polygon id="Path" points="727 82 727 84 731 84"></polygon>
                <path d="M624.334,84.6666 L625.666,85.3334 L624.334,84.6666 Z" id="Path"></path>
                <path d="M733,84.6666 L733.902352,85.3334 L733,84.6666 M745.645118,84 L747,86 L745.645118,84 Z" id="Shape"></path>
                <path d="M609.125,87.3333333 L609.125,88.6666667 L620,86 L609.125,87.3333333 M553.390625,86 L533,106 L553.390625,86 Z" id="Shape"></path>
                <polygon id="Path" points="728 86 728 88 732 88"></polygon>
                <path d="M598,88 L600,90 L598,88 Z" id="Path"></path>
                <path d="M735,88.6666 L735.895671,89.3334 L735,88.6666 M759.655149,88 L761,90 L759.655149,88 Z" id="Shape"></path>
                <path d="M595,89 L596.4,91 L595,89 M607.6,89 L609,91 L607.6,89 Z" id="Shape"></path>
                <path d="M587,93 L589,95 L587,93 Z" id="Path"></path>
                <path d="M751,93 L753,95 L751,93 Z" id="Path"></path>
                <path d="M585,95 L587,97 L585,95 Z" id="Path"></path>
                <path d="M756,95 L758,97 L756,95 Z" id="Path"></path>
                <path d="M582.637066,96 L584,97.3571429 L582.637066,96 M243.266409,102.785714 L244.629344,104.142857 L243.266409,102.785714 M555.378378,102.785714 L526.756757,134 C535.055664,127.9181 552.971436,112.672229 555.378378,102.785714 M231,104.142857 L231,112.285714 L232.362934,112.285714 L231,104.142857 M238.268529,109.119093 L238.723749,110.023764 L238.268529,109.119093 M245.083201,110.476236 L245.538421,111.380907 L245.083201,110.476236 M534.934363,109.571429 L533.571429,112.285714 L534.934363,109.571429 M528.119691,110.928571 L529.482625,112.285714 L528.119691,110.928571 Z" id="Shape"></path>
                <path d="M237,113 L239,115 L237,113 Z" id="Path"></path>
                <path d="M460,113 L462,115 L460,113 Z" id="Path"></path>
                <path d="M231.454545,115 L238.272727,134.25 L239.636364,134.25 L231.454545,115 M226,116.375 C227.317273,132.617875 239.266818,154.989125 256,159 L256,157.625 C238.249545,148.339625 234.630455,132.38495 226,116.375 M238.272727,116.375 L241,124.625 L242.363636,124.625 L238.272727,116.375 Z" id="Shape"></path>
                <path d="M469.631579,116 L471,117.5 L469.631579,116 M445,117.5 L446.368421,119 L445,117.5 Z" id="Shape"></path>
                <path d="M527,117 L529,119 L527,117 Z" id="Path"></path>
                <path d="M448.334,119.6666 L449.666,120.3334 L448.334,119.6666 Z" id="Path"></path>
                <path d="M543.639269,119 L545,120.285714 L543.639269,119 M247,120.285714 L249.721461,122.857143 L247,120.285714 M531.392694,120.285714 L524.589041,128 L531.392694,120.285714 M523.228311,121.571429 L524.589041,122.857143 L523.228311,121.571429 M540.917808,121.571429 L542.278539,122.857143 L540.917808,121.571429 Z" id="Shape"></path>
                <path d="M460,123 L461.36,125 L460,123 M492.64,123 L494,125 L492.64,123 Z" id="Shape"></path>
                <path d="M249.666,125.3334 L250.334,126.6666 L249.666,125.3334 Z" id="Path"></path>
                <path d="M462,124 L464,126 L462,124 Z" id="Path"></path>
                <path d="M511.723301,124 L513.087379,125.384615 L511.723301,124 M522.635922,124 L524,125.384615 L522.635922,124 M243,125.384615 L255.276699,142 L243,125.384615 Z" id="Shape"></path>
                <path d="M470.334,126.6666 L471.666,127.3334 L470.334,126.6666 Z" id="Path"></path>
                <path d="M538,126 L536,129 L538,126 Z" id="Path"></path>
                <path d="M473,127 L475,129 L473,127 Z" id="Path"></path>
                <path d="M510,127 L512,129 L510,127 Z" id="Path"></path>
                <path d="M484,130 L486,132 L484,130 Z" id="Path"></path>
                <path d="M507,130 L509,132 L507,130 Z" id="Path"></path>
                <path d="M452.913043,131 L454.282609,132.333333 L452.913043,131 M488.521739,131 L489.891304,132.333333 L488.521739,131 M431,132.333333 L432.369565,133.666667 L431,132.333333 M492.630435,132.333333 L494,133.666667 L492.630435,132.333333 M433.73913,133.666667 L435.108696,135 L433.73913,133.666667 Z" id="Shape"></path>
                <path d="M240,135 L258,151 L240,135 Z" id="Path"></path>
                <path d="M464,135 L466,137 L464,135 Z" id="Path"></path>
                <path d="M503,135 L504.375,136.333333 L503,135 M525,135 L522.25,139 L525,135 Z" id="Shape"></path>
                <path d="M475,138 L477.739726,141 L475,138 M567.694521,138.4995 L568.606849,139.0005 L567.694521,138.4995 M570.890411,139.5 L570.890411,141 L575,141 L570.890411,139.5 Z" id="Shape"></path>
                <path d="M119.666,141.334 L120.334,142.666 L119.666,141.334 Z" id="Path"></path>
                <path d="M402,141 L403.360656,143 L402,141 M452.344262,141 L453.704918,143 L452.344262,141 M483.639344,141 L485,143 L483.639344,141 Z" id="Shape"></path>
                <path d="M521,141 L518,145 L521,141 Z" id="Path"></path>
                <path d="M456,142 L458,144 L456,142 Z" id="Path"></path>
                <path d="M756,142 L758,144 L756,142 Z" id="Path"></path>
                <path d="M411,144 L415,148 L411,144 Z" id="Path"></path>
                <path d="M502.634752,144 L504,145.363636 L502.634752,144 M119,145.363636 L120.365248,159 L121.730496,159 L119,145.363636 Z" id="Shape"></path>
                <path d="M436,144 L438,146 L436,144 Z" id="Path"></path>
                <path d="M495.08377,146 L491,151 L495.08377,146 M751,146 L749.638743,148.5 L751,146 Z" id="Shape"></path>
                <path d="M468.334,146.666 L469.666,147.334 L468.334,146.666 Z" id="Path"></path>
                <path d="M506.333333,146 L505,149 L506.333333,146 M511.666667,146 L513,147.5 L511.666667,146 Z" id="Shape"></path>
                <polygon id="Path" points="563 148 567 151 567 149.5"></polygon>
                <path d="M724,149.5 L724,151 L732.117647,149.5 L724,149.5 M747,148 L744.294118,149.5 L744.294118,151 L747,148 Z" id="Shape"></path>
                <path d="M446.454936,149 L447.818592,150.5 L446.454936,149 M386,150.9995 L386.908195,151.5005 L386,150.9995 M404.181618,150.5 L405.545273,152 L404.181618,150.5 M423.272794,150.5 L424.636449,152 L423.272794,150.5 M450.091805,150.9995 L451,151.5005 L450.091805,150.9995 Z" id="Shape"></path>
                <path d="M496,151 L489,159 L496,151 Z" id="Path"></path>
                <path d="M551,150 L551,151.5 L557.875,153 L557.875,151.5 L551,150 M568.875,150 L568.875,151.5 L573,151.5 L568.875,150 Z" id="Shape"></path>
                <path d="M741.635789,150 L743,151.352941 L741.635789,150 M95,151.352941 L99.0926316,173 L100.456842,173 L95,151.352941 Z" id="Shape"></path>
                <path d="M425,151 L427,153 L425,151 Z" id="Path"></path>
                <path d="M488,151 L490,153 L488,151 Z" id="Path"></path>
                <path d="M575.334,151.666 L576.666,152.334 L575.334,151.666 Z" id="Path"></path>
                <path d="M764,152 L754.454545,158.666667 L754.454545,160 L764,152 M89,153.333333 L90.3636364,154.666667 L89,153.333333 M102.636364,153.333333 L106.727273,168 L108.090909,168 L102.636364,153.333333 M112.181818,153.333333 L113.545455,162.666667 L114.909091,162.666667 L112.181818,153.333333 Z" id="Shape"></path>
                <path d="M428,153 L430,155 L428,153 Z" id="Path"></path>
                <polygon id="Path" points="728 155 728 157 732 157"></polygon>
                <path d="M415,156 L416.368421,157.5 L415,156 M464.263158,156 L467,159 L464.263158,156 Z" id="Shape"></path>
                <path d="M484.102881,156 L480,161.333333 L484.102881,156 M504.617285,156 L499.146777,164 L504.617285,156 M510.543213,156.889333 L511,157.777333 L510.543213,156.889333 Z" id="Shape"></path>
                <path d="M549,155 L551,157 L549,155 Z" id="Path"></path>
                <polygon id="Path" points="713 157 713 159 727 157"></polygon>
                <path d="M400,157 L400.908187,157.668 L400,157 M554.091813,157 L555,157.668 L554.091813,157 Z" id="Shape"></path>
                <path d="M88,159.889333 L88.4547448,160.777333 L88,159.889333 M257.735526,159 L257.735526,160.333333 L264.543083,160.333333 L264.543083,159 L257.735526,159 M496,159 L493.276977,163 L496,159 Z" id="Shape"></path>
                <path d="M557.334,159.666 L558.666,160.334 L557.334,159.666 Z" id="Path"></path>
                <path d="M735.334,159.666 L736.666,160.334 L735.334,159.666 Z" id="Path"></path>
                <path d="M545,160 L545,161.333333 L554.648909,164 L554.648909,162.666667 L545,160 M561.081975,160.444 L562,160.889333 L561.081975,160.444 Z" id="Shape"></path>
                <path d="M728.84643,160 L728.84643,161.4 L732.932354,161.4 L728.84643,160 M735.656303,165.6 L735.656303,167 L752,161.4 L735.656303,165.6 M81,162.3338 L81.4548996,163.2662 L81,162.3338 Z" id="Shape"></path>
                <path d="M426,161 L427.361027,163 L426,161 M449.137454,161 L450.498481,163 L449.137454,161 M567.093556,161.666 L568,162.334 L567.093556,161.666 Z" id="Shape"></path>
                <path d="M724.334,161.666 L725.666,162.334 L724.334,161.666 Z" id="Path"></path>
                <path d="M411,162 L412.375,164 L411,162 M453.625,162 L455,164 L453.625,162 Z" id="Shape"></path>
                <path d="M489,163 L487.638225,165.769231 L489,163 M90,164.384615 L95.447099,181 L96.8088737,181 L90,164.384615 Z" id="Shape"></path>
                <path d="M413,164 L415,166 L413,164 Z" id="Path"></path>
                <path d="M483,164 L485,166 L483,164 Z" id="Path"></path>
                <path d="M558.092057,165 L559,165.60108 L558.092057,165 M215,166.20036 L216.363278,168 L215,166.20036 Z" id="Shape"></path>
                <path d="M474,166 L471,170 L474,166 Z" id="Path"></path>
                <polygon id="Path" points="542 166 542 167.5 547 169 547 167.5"></polygon>
                <path d="M755.636727,166 L757,167.368421 L755.636727,166 M82.1796407,167.368421 L82.1796407,172.842105 L83.5429142,172.842105 L82.1796407,167.368421 M476.165669,167.368421 L472.075848,172.842105 L476.165669,167.368421 M74,168.736842 L82.1796407,192 L83.5429142,192 L74,168.736842 Z" id="Shape"></path>
                <path d="M422,168 L423.361702,170 L422,168 M548.638298,168 L550,170 L548.638298,168 Z" id="Shape"></path>
                <path d="M763,168 L765,170 L763,168 Z" id="Path"></path>
                <path d="M425,169 L426.333333,171 L425,169 M443.666667,169 L445,171 L443.666667,169 Z" id="Shape"></path>
                <path d="M462.446429,170 L457,174.2 L457,175.6 L462.446429,170 M760.638393,170 L748.383929,175.6 L748.383929,177 L762,171.4 L760.638393,170 Z" id="Shape"></path>
                <path d="M427,171 L429,173 L427,171 Z" id="Path"></path>
                <path d="M466.363636,171 L465,174 L466.363636,171 M475.909091,171 L474.545455,174 L475.909091,171 M480,171 L478.636364,174 L480,171 Z" id="Shape"></path>
                <path d="M559.334,171.666 L560.666,172.334 L559.334,171.666 Z" id="Path"></path>
                <path d="M741.636184,171 L743,172.285898 L741.636184,171 M52,173.143592 L52.4546962,174 L52,173.143592 Z" id="Shape"></path>
                <path d="M429,172 L431,174 L429,172 Z" id="Path"></path>
                <path d="M468.785714,172 L436.214286,190.941176 L436.214286,189.588235 C445.871714,186.814706 456.908,181.113412 463.357143,173.352941 L424,193.647059 L424,195 C428.500286,194.251824 433.387357,190.038765 432.142857,195 C442.075786,192.146647 465.862429,182.665235 468.785714,172 M491.857143,172 L489.142857,176.058824 L491.857143,172 M500,172 L497.285714,177.411765 L498.642857,177.411765 L500,172 Z" id="Shape"></path>
                <path d="M564.334,172.666 L565.666,173.334 L564.334,172.666 Z" id="Path"></path>
                <path d="M739.092309,172 L740,172.460911 L739.092309,172 M69,172.920442 L77.1773921,195 L78.5402908,195 L69,172.920442 M83.9918856,172.920442 L90.806379,185.340193 L83.9918856,172.920442 Z" id="Shape"></path>
                <path d="M224,174 L224,175.25 L230.818182,179 L224,174 M432.636364,174 L434,175.25 L432.636364,174 Z" id="Shape"></path>
                <path d="M123.014493,175 L124.376812,222 L125.73913,222 C125.496638,210.066147 129.55771,184.719324 123.014493,175 M454.057971,175 L437.710145,184.676471 L437.710145,186.058824 C443.309275,184.387559 452.359159,181.101706 454.057971,175 M470.405797,175 L428.173913,199.882353 L428.173913,201.264706 C439.47571,198.541471 467.260203,187.354088 470.405797,175 M481.304348,175 L482.666667,176.382353 L481.304348,175 M794.637681,175 L796,176.382353 L794.637681,175 M44,176.382353 L45.3623188,183.294118 L46.7246377,183.294118 L44,176.382353 M473.130435,176.382353 L471.768116,179.147059 L473.130435,176.382353 Z" id="Shape"></path>
                <path d="M536,176 L538,178 L536,176 Z" id="Path"></path>
                <path d="M479.101538,177 L442.298462,201.827586 L442.298462,203.206897 C453.332569,199.990345 476.161382,189.129655 479.101538,177 M488.643077,177 L480.464615,188.034483 L481.827692,188.034483 L488.643077,177 M503.636923,177 L505,178.37931 L503.636923,177 M62,178.37931 L71.5415385,201.827586 L72.9046154,201.827586 L62,178.37931 M481.827692,178.37931 C463.040403,197.233103 442.69648,207.411034 417.763077,215.62069 L417.763077,217 C435.867465,213.846897 455.607545,204.634483 469.56,192.737931 C474.144028,188.830345 480.382831,184.413793 481.827692,178.37931 M496.821538,178.37931 L491.369231,186.655172 L496.821538,178.37931 Z" id="Shape"></path>
                <path d="M543.334,179.666 L544.666,180.334 L543.334,179.666 Z" id="Path"></path>
                <path d="M756.635978,180 L758,181.285898 L756.635978,180 M116,182.143592 L116.455583,183 L116,182.143592 M489.287726,181.285898 L490.651747,182.571796 L489.287726,181.285898 Z" id="Shape"></path>
                <path d="M549,180 L551,182 L549,180 Z" id="Path"></path>
                <path d="M754,180.666 L754.899122,181.334 L754,180.666 M770.649966,180 L772,182 L770.649966,180 Z" id="Shape"></path>
                <path d="M210,182 L213,185 L210,182 Z" id="Path"></path>
                <path d="M468,182 L469.361991,183.4 L468,182 M504.773756,182 L506.135747,183.4 L504.773756,182 M749.478584,182.4662 L750.38567,182.9338 L749.478584,182.4662 M767.638009,182 L754.0181,187.6 L754.0181,189 L769,183.4 L767.638009,182 Z" id="Shape"></path>
                <path d="M238,183 L239.359775,185 L238,183 M557.09439,183.666 L558,184.334 L557.09439,183.666 Z" id="Shape"></path>
                <path d="M745.091818,183 L746,183.455449 L745.091818,183 M46,183.909534 L47.3636372,185.273152 L46,183.909534 M116.909137,183.909534 L116.909137,218 L118.272774,218 L116.909137,183.909534 Z" id="Shape"></path>
                <path d="M241,184 L241,185.4 L250.521186,191 L250.521186,189.6 L241,184 M560.639831,184 L562,185.4 L560.639831,184 Z" id="Shape"></path>
                <path d="M737.546845,185 L737.546845,186.25 L743,186.25 L737.546845,185 M30,186.25 L30,190 L31.3632887,190 L30,186.25 Z" id="Shape"></path>
                <path d="M231,186 L234,189 L231,186 Z" id="Path"></path>
                <path d="M433.203822,188.75 L437.292994,186 L433.203822,188.75 M463.191083,186 L457.738854,190.125 L457.738854,191.5 L463.191083,186 M57,187.375 L66.5414013,208 L67.9044586,208 L57,187.375 M485,187.375 L479.547771,194.25 L485,187.375 Z" id="Shape"></path>
                <path d="M532,187 L534,189 L532,187 Z" id="Path"></path>
                <path d="M782.274358,188 L759.106397,200.189873 L759.106397,201.544304 L785,189.35443 L782.274358,188 M25,190.257835 L25.4543646,191.159886 L25,190.257835 M111.766328,189.35443 C111.793585,231.00181 120.09998,276.933253 166.279176,290.883886 C178.451895,294.561165 190.478792,295 203.075349,295 L203.075349,293.64557 C162.033988,293.64557 128.264642,273.558013 116.870094,232.696203 C112.999682,218.814646 118.020315,202.289241 111.766328,189.35443 Z" id="Shape"></path>
                <polygon id="Path" points="220 188 223 191 223 188"></polygon>
                <path d="M429,189 L430.377778,190.357143 L429,189 M477.222222,189 L474.466667,193.071429 L477.222222,189 M488.244444,189 L468.955556,208 L491,189 L488.244444,189 Z" id="Shape"></path>
                <path d="M535.334,188.666 L536.666,189.334 L535.334,188.666 Z" id="Path"></path>
                <path d="M39,190 L40.375,191.352941 L39,190 M48.625,191.352941 L59.625,213 L61,213 L48.625,191.352941 Z" id="Shape"></path>
                <path d="M193,191.444 L193.907163,191.889333 L193,191.444 M237.040987,191 L242.489413,195 L242.489413,193.666667 L237.040987,191 M434.092837,191.444 L435,191.889333 L434.092837,191.444 Z" id="Shape"></path>
                <path d="M454,191 L456,193 L454,191 Z" id="Path"></path>
                <path d="M543,191 L545,193 L543,191 Z" id="Path"></path>
                <path d="M32,193 C34.4919385,203.49125 41.8870964,221.0457 51.0744337,227.0625 L32,193 M40.1747573,193 C42.8355045,202.236388 47.6930816,212.699025 55.1618123,218.8875 L40.1747573,193 M105.572816,193 C106.016977,246.634813 125.447013,301.993187 188.682848,302 L188.682848,300.6375 C151.791531,299.875862 118.119706,272.887463 110.365948,236.6 C107.416223,222.797875 111.694346,205.739375 105.572816,193 M451.63754,193 L446.187702,195.725 L446.187702,197.0875 L453,194.3625 L451.63754,193 Z" id="Shape"></path>
                <polygon id="Path" points="547 193 547 194.5 551 196 549.666667 193"></polygon>
                <path d="M759.638048,193 L761,194.285898 L759.638048,193 M26,195.143592 L26.4540747,196 L26,195.143592 M472.266232,194.285898 L473.628183,195.571796 L472.266232,194.285898 M755.552193,194.285898 L756.914145,195.571796 L755.552193,194.285898 Z" id="Shape"></path>
                <polygon id="Path" points="228 195 228 196.333333 233 199"></polygon>
                <path d="M415,196 L416.377778,197.333333 L415,196 M421.888889,196 L423.266667,197.333333 L421.888889,196 M426.022222,197.333333 L426.022222,198.666667 L431.533333,197.333333 L426.022222,197.333333 M477,196 L446.688889,214.666667 L446.688889,216 C456.462844,213.294667 474.365689,206.476 477,196 Z" id="Shape"></path>
                <path d="M555,195 L557,197 L555,195 Z" id="Path"></path>
                <path d="M752.661066,195.461077 L753.568716,195.923538 L752.661066,195.461077 M791.274326,195 L764.017587,211.615385 L764.017587,213 C774.782636,211.050462 787.06316,203.527846 794,195 L791.274326,195 M19,197.308154 L19.4543698,198.230308 L19,197.308154 Z" id="Shape"></path>
                <path d="M202,197 L204,199 L202,197 Z" id="Path"></path>
                <path d="M443.717949,197 L441,198.5 L441,200 L443.717949,197 M468.179487,197 L466.820513,200 L468.179487,197 M494,197 L492.641026,200 L494,197 Z" id="Shape"></path>
                <path d="M559.334,197.666 L560.666,198.334 L559.334,197.666 Z" id="Path"></path>
                <polygon id="Path" points="738 198 738 200 749 198"></polygon>
                <path d="M241,198 L242.363636,199.4 L241,198 M260.090909,198 L260.090909,199.4 L271,205 L271,203.6 L260.090909,198 Z" id="Shape"></path>
                <path d="M414,198.481 L414.907073,198.963444 L414,198.481 M422.625366,198 L423.987337,199.444444 L422.625366,198 M488,198 L477.104228,211 L488,198 Z" id="Shape"></path>
                <path d="M526,199 L526.914769,199.668 L526,199 M563.085231,199 L564,199.668 L563.085231,199 Z" id="Shape"></path>
                <path d="M26,199 L43.6428571,235 L45,235 C42.3429857,223.693231 33.6222571,207.612308 26,199 M97.9285714,199 L100.642857,218.384615 L102,218.384615 L97.9285714,199 Z" id="Shape"></path>
                <polygon id="Path" points="248 200 248 201.25 255 205"></polygon>
                <path d="M411,199 L412.380952,200.4 L411,199 M420.666667,199 L422.047619,200.4 L420.666667,199 M426.190476,204.6 L426.190476,206 L440,200.4 L426.190476,204.6 Z" id="Shape"></path>
                <polygon id="Path" points="529 200 529 201.333333 536 204 536 202.666667"></polygon>
                <path d="M774.637019,200 L776,201.333333 L774.637019,200 M407.541342,201.777333 L408.449087,202.222667 L407.541342,201.777333 M412.084156,202.666667 L412.084156,204 L417.536079,202.666667 L412.084156,202.666667 M422.988002,204 L427.076944,202.666667 L422.988002,204 M462.514442,201.333333 L422.988002,218.666667 L422.988002,220 C432.554763,217.834667 459.574493,211.473333 462.514442,201.333333 M771.911058,201.333333 L773.274039,202.666667 L771.911058,201.333333 M20,203.556 L20.4544178,204.444 L20,203.556 Z" id="Shape"></path>
                <path d="M403.753597,202 L405.115108,203.363636 L403.753597,202 M489.528777,202 C477.076399,213.934545 462.844527,223.268636 447.321942,230.636364 L447.321942,232 C459.658592,227.793182 486.202606,215.729091 489.528777,202 M493.613309,202 L494.97482,203.363636 L493.613309,202 M768.638489,202 L770,203.363636 L768.638489,202 M13,203.363636 C15.2711362,218.767273 24.3234129,233.734545 32.0611511,247 L33.4226619,247 L13,203.363636 Z" id="Shape"></path>
                <path d="M240,204 L248,211 L240,204 Z" id="Path"></path>
                <path d="M400,204 L401.362069,205.333333 L400,204 M409.080914,204.444 L409.988052,204.889333 L409.080914,204.444 M419.068966,204 L420.431034,205.333333 L419.068966,204 M421.793103,210.666667 L421.793103,212 L440.862069,205.333333 L421.793103,210.666667 M477.637931,204 L479,205.333333 L477.637931,204 Z" id="Shape"></path>
                <polygon id="Path" points="539 204 539 205.333333 547 208 547 206.666667"></polygon>
                <path d="M754.363636,208.714286 L754.363636,210.071429 L768,206 L754.363636,208.714286 M93,206 L98.4545455,244 L99.8181818,244 C98.4163636,232.959643 100.220455,214.779357 93,206 Z" id="Shape"></path>
                <path d="M228,205 L232.112903,209.166667 L228,205 M249.935484,205 L249.935484,206.388889 L255.419355,209.166667 L255.419355,207.777778 L249.935484,205 M271.870968,205 L271.870968,206.388889 L313,230 L313,228.611111 L271.870968,205 Z" id="Shape"></path>
                <path d="M491,205 L482.826087,214.592593 L491,205 M21,206.37037 L38.7101449,242 L40.0724638,242 L21,206.37037 M392.913043,206.37037 L394.275362,207.740741 L392.913043,206.37037 M401.995623,206.826704 L402.902928,207.284407 L401.995623,206.826704 M421.521739,206.37037 L422.884058,207.740741 L421.521739,206.37037 M474.652174,206.37037 L446.043478,222.814815 L446.043478,224.185185 C454.271884,221.800741 472.204087,215.350407 474.652174,206.37037 Z" id="Shape"></path>
                <path d="M201,208 L202.36,209.25 L201,208 M260.84,208 L260.84,209.25 L267.64,213 L260.84,208 M267.64,208 L269,209.25 L267.64,208 Z" id="Shape"></path>
                <path d="M390,208 L391.359396,210 L390,208 M397.703698,208.666 L398.609056,209.334 L397.703698,208.666 M407.219472,208.666 L408.12483,209.334 L407.219472,208.666 M418.094642,208.666 L419,209.334 L418.094642,208.666 Z" id="Shape"></path>
                <polygon id="Path" points="549 208 549 210 553 210"></polygon>
                <path d="M786.875,208 L780,211.75 L780,213 L788.25,209.25 L786.875,208 M811.625,208 L813,209.25 L811.625,208 Z" id="Shape"></path>
                <polygon id="Path" points="271 209 275 212 275 210.5"></polygon>
                <path d="M404,209.666 L404.879155,210.334 L404,209.666 M413.679947,209 L415,211 L413.679947,209 Z" id="Shape"></path>
                <path d="M520.48061,209 L521.843235,210.4 L520.48061,209 M554.092491,209.4662 L555,209.9338 L554.092491,209.4662 M188,210.4 L190.725251,213.2 L188,210.4 M217.97776,210.4 L217.97776,211.8 L226.153513,216 L226.153513,214.6 L217.97776,210.4 Z" id="Shape"></path>
                <path d="M400,210 L401.358209,211.444444 L400,210 M410.413388,210.481 L411.317955,210.963444 L410.413388,210.481 M474.701493,210 L467.910448,215.777778 L467.910448,217.222222 L474.701493,210 M491,210 L480.134328,223 L491,210 Z" id="Shape"></path>
                <path d="M524,210 L526,212 L524,210 Z" id="Path"></path>
                <path d="M794.635838,210 L786.450867,216.818182 L796,211.363636 L794.635838,210 M88,211.363636 L92.0924855,240 L93.4566474,240 C93.4511908,230.783182 93.6926474,219.010909 88,211.363636 Z" id="Shape"></path>
                <path d="M237,212 L243.829268,217.52381 L243.829268,216.142857 L237,212 M250.658537,212 C260.507707,224.057095 279.053268,234.408714 293,241 C285.829268,229.706571 262.590634,218.001619 250.658537,212 Z" id="Shape"></path>
                <path d="M407,211 L408.365854,213 L407,211 M418.837854,211.666 L419.747512,212.334 L418.837854,211.666 M461.634146,211 L463,213 L461.634146,211 Z" id="Shape"></path>
                <path d="M526.638298,212 L528,213.4 L526.638298,212 M208,213.4 L208,214.8 L212.085106,216.2 L210.723404,213.4 L208,213.4 M246.12766,213.4 L250.212766,216.2 L250.212766,214.8 L246.12766,213.4 M261.106383,213.4 L261.106383,214.8 L269.276596,219 L269.276596,217.6 L261.106383,213.4 Z" id="Shape"></path>
                <path d="M402,213 L403.362319,214.333333 L402,213 M407.449275,231.666667 L407.449275,233 L459.217391,214.333333 L442.869565,219.398667 L407.449275,231.666667 M776.637681,213 L753.478261,222.333333 L753.478261,223.666667 L778,214.333333 L776.637681,213 Z" id="Shape"></path>
                <polygon id="Path" points="280 215 289 222 289 220.6"></polygon>
                <path d="M411,215 L413,217 L411,215 Z" id="Path"></path>
                <path d="M531.092551,215 L532,215.455444 L531.092551,215 M195,215.909525 L195,217.27313 L200.450142,220.000341 L195,215.909525 M272.664525,215.909525 L272.664525,217.27313 L301.277771,235 L272.664525,215.909525 Z" id="Shape"></path>
                <path d="M395,216 L396.370968,217.5 L395,216 M405.51121,216.4995 L406.424274,217.0005 L405.51121,216.4995 M442.527339,216.4995 L443.440403,217.0005 L442.527339,216.4995 M480,216 L478.629032,219 L480,216 Z" id="Shape"></path>
                <polygon id="Path" points="535 216 535 217.333333 544 220 544 218.666667"></polygon>
                <path d="M82,217 L88.6666667,262 L90,262 C89.7306667,248.665 89.044,228.464091 82,217 Z" id="Path"></path>
                <path d="M222,217 L223.333333,219 L222,217 M236.666667,217 L238,219 L236.666667,217 Z" id="Shape"></path>
                <path d="M401.810631,217 L403.172757,218.333333 L401.810631,217 M397.724252,222.333333 L397.724252,223.666667 L416.79402,218.333333 L397.724252,222.333333 M395,231.666667 L395,233 L441.312292,218.333333 C427.926678,215.997333 408.068239,228.174667 395,231.666667 M465.830565,217 L467.192691,218.333333 L465.830565,217 M783.20598,217 L762.774086,226.333333 L762.774086,227.666667 L784.568106,218.333333 L783.20598,217 M802.275748,217 L794.10299,225 L805,218.333333 L802.275748,217 M792.740864,218.333333 L791.378738,221 L792.740864,218.333333 Z" id="Shape"></path>
                <path d="M219,221 L223.097561,225.090909 L219,221 M232.658537,221 C242.043317,232.502273 261.37561,245.054545 275,251 C264.868098,238.753182 246.513756,228.700455 232.658537,221 M249.04878,221 L255.878049,226.454545 L249.04878,221 Z" id="Shape"></path>
                <path d="M382,220 L383.355932,222 L382,220 M419.514576,220.666 L420.417627,221.334 L419.514576,220.666 M460.644068,220 L462,222 L460.644068,220 Z" id="Shape"></path>
                <path d="M548,220 L550,222 L548,220 Z" id="Path"></path>
                <polygon id="Path" points="119 222 119 226 121 226"></polygon>
                <path d="M190,222 L191.37037,223.333333 L190,222 M257.148148,222 L257.148148,223.333333 L264,226 L264,224.666667 L257.148148,222 Z" id="Shape"></path>
                <path d="M390,222 L391.371429,223.357143 L390,222 M407.828571,224.714286 L407.828571,226.071429 L417.428571,223.357143 L407.828571,224.714286 M458.571429,222 L459.942857,223.357143 L458.571429,222 M473.657143,222 L464.057143,228.785714 L464.057143,230.142857 L473.657143,222 M486,222 L462.685714,239.642857 L462.685714,241 C470.512457,237.657357 483.850971,230.666714 486,222 Z" id="Shape"></path>
                <path d="M551,221 L553,223 L551,221 Z" id="Path"></path>
                <path d="M788.63655,221 L790,222.377778 L788.63655,221 M126,222.377778 C129.604961,263.839244 173.741191,282.261511 209.170431,283 L209.170431,281.622222 C180.426185,279.3296 156.305396,271.859289 138.487836,247.177778 C132.862242,239.385067 130.819795,230.339956 126,222.377778 Z" id="Shape"></path>
                <path d="M276,223 L280,227 L276,223 Z" id="Path"></path>
                <path d="M364,222 L365.367647,224 L364,222 M455.632353,222 L457,224 L455.632353,222 Z" id="Shape"></path>
                <path d="M554.334,222.666 L555.666,223.334 L554.334,222.666 Z" id="Path"></path>
                <path d="M785.63745,223 L787,224.365079 L785.63745,223 M103,224.365079 C103.00545,272.724381 134.334558,300.606127 179.302789,309 L179.302789,307.634921 C148.267992,297.802254 123.566327,288.941524 110.425896,255.761905 C106.439076,245.694444 107.027697,233.960222 103,224.365079 Z" id="Shape"></path>
                <polygon id="Path" points="295 224 295 225.333333 306 232"></polygon>
                <path d="M340,224 L341.362745,225.375 L340,224 M361.803922,224 L363.166667,225.375 L361.803922,224 M394.05601,224.457875 L394.963598,224.917125 L394.05601,224.457875 M421.764706,232.25 L421.764706,233.625 L444.931373,225.375 L421.764706,232.25 M477.637255,224 L464.009804,233.625 L464.009804,235 L479,225.375 L477.637255,224 Z" id="Shape"></path>
                <path d="M558.108772,224 L558.108772,225.25 L569,227.75 L569,226.5 L558.108772,224 M181,225.25 L181,226.5 L185.084211,227.75 L183.722807,225.25 L181,225.25 M209.589474,225.25 L213.673684,229 L209.589474,225.25 M247.708772,225.25 L251.792982,227.75 L251.792982,226.5 L247.708772,225.25 Z" id="Shape"></path>
                <path d="M337.320463,225 L338.683398,226.37037 L337.320463,225 M358.673556,225.456333 L359.58127,225.914037 L358.673556,225.456333 M390.021046,225.456333 L390.928761,225.914037 L390.021046,225.456333 M402.741313,225 L404.104247,226.37037 L402.741313,225 M781.637066,225 L769.370656,230.481481 L769.370656,231.851852 L783,226.37037 L781.637066,225 M77,226.37037 L82.4517375,262 L83.8146718,262 C83.5993282,251.509815 83.1536486,235.054407 77,226.37037 Z" id="Shape"></path>
                <path d="M197,227 L199.736842,229.8 L197,227 M266.789474,227 L275,234 L266.789474,227 Z" id="Shape"></path>
                <path d="M355.02529,227 L356.385902,228.377778 L355.02529,227 M378.155696,229.755556 L378.155696,231.133333 L387.679982,228.377778 L378.155696,229.755556 M447.093832,227.4588 L448,227.918978 L447.093832,227.4588 M121,228.377778 C127.105067,270.237422 165.09744,289 202.636729,289 L202.636729,287.622222 C176.696658,287.622222 152.110397,279.410667 136.183071,257.311111 C129.698393,248.312844 126.969006,237.480756 121,228.377778 Z" id="Shape"></path>
                <path d="M228,228 L228,229.25 L234.875,233 L228,228 M259.625,228 L261,229.25 L259.625,228 Z" id="Shape"></path>
                <path d="M443,228 L445,230 L443,228 Z" id="Path"></path>
                <path d="M262,230 L284.153846,246 L262,230 M285.538462,230 L285.538462,231.333333 L298,238 L298,236.666667 L285.538462,230 Z" id="Shape"></path>
                <path d="M348,229 L349.357143,230.333333 L348,229 M350.714286,231.666667 L350.714286,233 L358.857143,230.333333 L350.714286,231.666667 M367.905214,229.444 L368.809071,229.889333 L367.905214,229.444 M440.285714,229 L441.642857,230.333333 L440.285714,229 M460.642857,229 L455.214286,231.666667 L455.214286,233 L462,230.333333 L460.642857,229 Z" id="Shape"></path>
                <path d="M217,231 C225.929655,242.541818 243.238621,255.766364 257,261 L217,231 M239.068966,231 L239.068966,232.363636 L244.586207,235.090909 L244.586207,233.727273 L239.068966,231 Z" id="Shape"></path>
                <path d="M326,231 L327.357143,232.5 L326,231 M331.428571,231 L332.785714,232.5 L331.428571,231 M342.285714,232.5 L342.285714,234 L347.714286,232.5 L342.285714,232.5 M365.357143,231 L366.714286,232.5 L365.357143,231 M376.214286,231 L377.571429,232.5 L376.214286,231 M388.428571,231 L389.785714,232.5 L388.428571,231 M434.571429,232.5 L434.571429,234 L440,232.5 L434.571429,232.5 Z" id="Shape"></path>
                <path d="M190,233 L191.363636,234.25 L190,233 M256.818182,233 L256.818182,234.25 L265,238 L265,236.75 L256.818182,233 Z" id="Shape"></path>
                <path d="M327.415566,233 L328.777553,234.37037 L327.415566,233 M361.011702,233.456333 L361.918786,233.914037 L361.011702,233.456333 M361.465244,237.111111 L361.465244,238.481481 L373.723128,234.37037 L361.465244,237.111111 M383.257038,233 L384.619025,234.37037 L383.257038,233 M444.092917,233.456333 L445,233.914037 L444.092917,233.456333 M70,234.37037 L76.8099356,270 L78.1719227,270 C78.0779456,258.562889 77.3833322,243.576519 70,234.37037 Z" id="Shape"></path>
                <path d="M193,234 L195.758621,236.666667 L193,234 M228.862069,234 L233,238 L228.862069,234 Z" id="Shape"></path>
                <path d="M320,234 L321.363636,235.5 L320,234 M325.454545,234 L326.818182,235.5 L325.454545,234 M339.090909,234 L340.454545,235.5 L339.090909,234 M344.545455,235.5 L344.545455,237 L350,235.5 L344.545455,235.5 M358.181818,234 L355.454545,235.5 L355.454545,237 L358.181818,234 M380,234 L381.363636,235.5 L380,234 M392.272727,234 L393.636364,235.5 L392.272727,234 M405.455,234.4995 L406.363182,235.0005 L405.455,234.4995 M419.091364,234.4995 L419.999545,235.0005 L419.091364,234.4995 M441.363636,234 L442.727273,235.5 L441.363636,234 M453.636364,234 L455,235.5 L453.636364,234 Z" id="Shape"></path>
                <path d="M201,235 L202.333333,237 L201,235 M207.666667,235 L209,237 L207.666667,235 Z" id="Shape"></path>
                <path d="M322,235 L323.359223,236.4 L322,235 M387.242718,235 L388.601942,236.4 L387.242718,235 M400.38233,235.4662 L401.287573,235.9338 L400.38233,235.4662 M408.990291,236.4 L408.990291,237.8 L415.786408,236.4 L408.990291,236.4 M426.660194,235 L428.019417,236.4 L426.660194,235 M422.582524,240.6 L422.582524,242 L438.893204,236.4 L422.582524,240.6 M442.970874,237.8 L442.970874,239.2 L451.126214,236.4 L442.970874,237.8 M448.407767,240.6 L448.407767,242 L462,236.4 L448.407767,240.6 Z" id="Shape"></path>
                <path d="M240,236 L264.352941,255 L240,236 M279.235294,236 L279.235294,237.357143 L286,241.428571 L279.235294,236 Z" id="Shape"></path>
                <path d="M319,237 L320.363636,238.347826 L319,237 M325.818182,237 L327.181818,238.347826 L325.818182,237 M340.818182,237 L338.090909,238.347826 L338.090909,239.695652 L340.818182,237 M351.727273,237 L353.090909,238.347826 L351.727273,237 M373.091364,237.448826 L373.999545,237.899 L373.091364,237.448826 M392.636364,238.347826 L392.636364,239.695652 L398.090909,238.347826 L392.636364,238.347826 M417.181818,238.347826 L417.181818,239.695652 L424,238.347826 L417.181818,238.347826 M323.090909,238.347826 L324.454545,239.695652 L323.090909,238.347826 M344.909091,239.695652 L344.909091,241.043478 L350.363636,239.695652 L344.909091,239.695652 M351.727273,241.043478 L351.727273,242.391304 L359.909091,239.695652 L351.727273,241.043478 M365.363636,239.695652 L365.363636,241.043478 L370.818182,239.695652 L365.363636,239.695652 M380.363636,238.347826 L381.727273,239.695652 L380.363636,238.347826 M405.818636,238.796652 L406.726818,239.246826 L405.818636,238.796652 M64,239.695652 L69.4545455,268 L70.8181818,268 C70.7922727,258.686522 69.7804545,247.363435 64,239.695652 Z" id="Shape"></path>
                <path d="M220,239 L221.357143,240.25 L220,239 M251.214286,239 L258,244 L258,242.75 L251.214286,239 Z" id="Shape"></path>
                <path d="M321.109589,239 L322.479452,240.375 L321.109589,239 M317,248.625 L317,250 L337.547945,240.375 L317,248.625 M377.273973,239 L378.643836,240.375 L377.273973,239 M390.516438,239.457875 L391.428767,239.917125 L390.516438,239.457875 M402.845205,239.457875 L403.757534,239.917125 L402.845205,239.457875 M410.150685,240.375 L410.150685,241.75 L417,240.375 L410.150685,240.375 Z" id="Shape"></path>
                <path d="M201,240 L205.105263,244.2 L201,240 M214.684211,240 L222.894737,247 L222.894737,245.6 L214.684211,240 M269.421053,240 L269.421053,241.4 L279,247 L269.421053,240 Z" id="Shape"></path>
                <path d="M311.36036,240 L312.720721,241.4 L311.36036,240 M310,244.2 L310,245.6 L319.522523,241.4 L310,244.2 M342.648649,240 L344.009009,241.4 L342.648649,240 M349.45045,245.6 L349.45045,247 L364.414414,241.4 L349.45045,245.6 M369.855856,241.4 L369.855856,242.8 L375.297297,241.4 L369.855856,241.4 M385.72718,240.4662 L386.63318,240.9338 L385.72718,240.4662 M397.970423,240.4662 L398.876423,240.9338 L397.970423,240.4662 M459.63964,240 L461,241.4 L459.63964,240 Z" id="Shape"></path>
                <path d="M239,242 L243,246 L239,242 Z" id="Path"></path>
                <path d="M308,242 L309.362745,243.5 L308,242 M339.343137,242 L340.705882,243.5 L339.343137,242 M348.882353,242 L350.245098,243.5 L348.882353,242 M381.134441,242.4995 L382.042029,243.0005 L381.134441,242.4995 M393.399147,242.4995 L394.306735,243.0005 L393.399147,242.4995 M402.029412,243.5 L402.029412,245 L407.480392,243.5 L402.029412,243.5 M419.745098,242 L421.107843,243.5 L419.745098,242 M445.637255,242 L447,243.5 L445.637255,242 Z" id="Shape"></path>
                <path d="M212,243 L215,246 L212,243 Z" id="Path"></path>
                <path d="M305.99786,244 L307.359728,245.25 L305.99786,244 M346.853891,244 L348.215759,245.25 L346.853891,244 M356.386965,247.75 L356.386965,249 L368.643774,245.25 L356.386965,247.75 M374.091245,245.25 L374.091245,246.5 L379.538716,245.25 L374.091245,245.25 M378.176848,247.75 L378.176848,249 L391.795525,245.25 L378.176848,247.75 M416.309144,244 L417.671012,245.25 L416.309144,244 M443.092996,244.41625 L444,244.83375 L443.092996,244.41625 M94,246.08375 L94.4548638,246.91625 L94,246.08375 Z" id="Shape"></path>
                <path d="M206,244 C212.945348,253.716667 226.309043,264.090278 237,269 L206,244 Z" id="Path"></path>
                <path d="M303.72549,244 L301,245.5 L301,247 L303.72549,244 M344.154049,244.4995 L345.061637,245.0005 L344.154049,244.4995 M399.117647,244 L400.480392,245.5 L399.117647,244 M413.654049,244.4995 L414.561637,245.0005 L413.654049,244.4995 M438.637255,244 L440,245.5 L438.637255,244 Z" id="Shape"></path>
                <path d="M229,246 L233,250 L229,246 Z" id="Path"></path>
                <path d="M307.329103,246 L308.693111,247.361337 L307.329103,246 M340.065277,246 L341.429285,247.361337 L340.065277,246 M371.437444,246 L372.801452,247.361337 L371.437444,246 M394.625568,246 L395.989575,247.361337 L394.625568,246 M409.629648,246 L410.993655,247.361337 L409.629648,246 M435.091571,246.453325 L436,246.908012 L435.091571,246.453325 M100,247.361337 C101.767753,287.825706 147.835735,321.05321 187.296465,314.06683 L187.296465,312.705494 C161.893193,314.821011 130.061356,302.473688 115.062732,281.39339 C107.382007,270.597991 105.511953,258.787035 100,247.361337 Z" id="Shape"></path>
                <polygon id="Path" points="262 248 269 253 269 251.75"></polygon>
                <path d="M298.1843,248 L296.822526,250.5 L298.1843,248 M304.993174,248 L306.354949,249.25 L304.993174,248 M347.208191,248 L348.569966,249.25 L347.208191,248 M368.543116,248.41625 L369.450058,248.83375 L368.543116,248.41625 M390.784983,248 L392.146758,249.25 L390.784983,248 M400.317406,249.25 L400.317406,250.5 L407.12628,249.25 L400.317406,249.25 M418.020478,251.75 L418.020478,253 L433,249.25 L418.020478,251.75 M34,249.25 L35.3617747,250.5 L34,249.25 Z" id="Shape"></path>
                <path d="M250,249 L254,253 L250,249 Z" id="Path"></path>
                <path d="M301.479901,249 L297.393161,251.740741 L297.393161,253.111111 L302.842148,250.37037 L301.479901,249 M343.709547,249 L345.071793,250.37037 L343.709547,249 M353.245273,249 L354.60752,250.37037 L353.245273,249 M360.056506,250.37037 L360.056506,251.740741 L365.505493,250.37037 L360.056506,250.37037 M370.95448,250.37037 L370.95448,251.740741 L376.403466,250.37037 L370.95448,250.37037 M386.847811,249.456333 L387.755067,249.914037 L386.847811,249.456333 M414.092744,249.456333 L415,249.914037 L414.092744,249.456333 M59,250.37037 C72.0271646,291.354037 70.4306115,343.144444 121.663345,356.395926 C130.693678,358.732407 139.591873,359.993148 148.908278,360 L148.908278,358.62963 C112.338767,355.725815 83.2765973,337.916481 72.2423995,301.074074 C67.8765353,286.493333 69.6745646,261.482704 59,250.37037 M287.857435,250.37037 L289.219681,251.740741 L287.857435,250.37037 M321.913601,250.37037 L323.275847,251.740741 L321.913601,250.37037 M340.985054,250.37037 L342.3473,251.740741 L340.985054,250.37037 M364.143246,257.222222 L364.143246,258.592593 L384.576946,251.740741 L364.143246,257.222222 M396.383537,250.826704 L397.290794,251.284407 L396.383537,250.826704 M410.006004,250.826704 L410.91326,251.284407 L410.006004,250.826704 Z" id="Shape"></path>
                <path d="M221,251 L226.555556,255.2 L226.555556,253.8 L221,251 M226.555556,251 L226.555556,252.4 L246,265 L226.555556,251 Z" id="Shape"></path>
                <path d="M309.277928,254.5 L313.37241,253.25 L309.277928,254.5 M320.196548,252 L321.561376,253.25 L320.196548,252 M335.209651,253.25 L335.209651,254.5 L340.668962,253.25 L335.209651,253.25 M354.317237,253.25 L354.317237,254.5 L359.776548,253.25 L354.317237,253.25 M365.235858,253.25 L365.235858,254.5 L370.695168,253.25 L365.235858,253.25 M393.442749,252.41625 L394.351724,252.83375 L393.442749,252.41625 M407.091025,252.41625 L408,252.83375 L407.091025,252.41625 M95,253.25 L95,257 L96.3648276,257 L95,253.25 Z" id="Shape"></path>
                <polygon id="Path" points="237 253 244 258 244 256.75"></polygon>
                <path d="M294.384615,253 L295.75,254.360656 L294.384615,253 M310.769231,255.721311 L310.769231,257.081967 L317.596154,254.360656 L310.769231,255.721311 M384.5,254.360656 L384.5,255.721311 L389.961538,254.360656 L384.5,254.360656 M401.795327,253.453098 L402.704673,253.907557 L401.795327,253.453098 M414.083788,253.453098 L414.993135,253.907557 L414.083788,253.453098 M291.653846,254.360656 L293.019231,255.721311 L291.653846,254.360656 M241.134615,287.016393 L241.134615,288.377049 L249.326923,285.655738 L249.326923,287.016393 L232.942308,295.180328 L232.942308,296.540984 L303.942308,257.081967 L303.942308,255.721311 L256.153846,281.57377 L256.153846,280.213115 L299.846154,255.721311 L282.096154,263.31241 L241.134615,287.016393 M305.307692,254.360656 L306.673077,255.721311 L305.307692,254.360656 M321.692308,254.360656 L323.057692,255.721311 L321.692308,254.360656 M207,321.032787 L207,322.393443 C251.628962,307.897016 290.071365,275.516131 332.615385,255.721311 C323.075442,254.137508 307.082692,265.859557 298.480769,270.146984 C267.115154,285.778197 238.769769,306.049246 207,321.032787 M215.192308,334.639344 L215.192308,336 L362.653846,255.721311 C351.091769,253.336082 333.154712,266.648738 323.057692,271.711738 C285.860519,290.364967 251.130596,313.716541 215.192308,334.639344 M397.699173,254.813754 L398.608519,255.268213 L397.699173,254.813754 M409.987635,254.813754 L410.896981,255.268213 L409.987635,254.813754 M278,255.721311 L279.365385,257.081967 L278,255.721311 M283.461538,255.721311 L284.826923,257.081967 L283.461538,255.721311 M369.480769,259.803279 L369.480769,261.163934 L383.134615,257.081967 L369.480769,259.803279 M384.5,258.442623 L384.5,259.803279 L395.423077,257.081967 L384.5,258.442623 M418.634615,255.721311 L420,257.081967 L418.634615,255.721311 Z" id="Shape"></path>
                <path d="M259,257 L261,259 L259,257 Z" id="Path"></path>
                <path d="M275.686792,257 L277.049057,258.358491 L275.686792,257 M281.135849,257 L279.773585,259.716981 L281.135849,257 M287.94717,257 L289.309434,258.358491 L287.94717,257 M305.656604,259.716981 L309.743396,258.358491 L305.656604,259.716981 M335.626415,257 L336.988679,258.358491 L335.626415,257 M345.162264,257 L346.524528,258.358491 L345.162264,257 M401.923725,257.452377 L402.830992,257.906113 L401.923725,257.452377 M414.637736,257 L416,258.358491 L414.637736,257 M55,258.358491 L67.2603774,312.698113 L68.6226415,312.698113 C64.986486,296.881208 64.7577619,271.419019 55,258.358491 M95.8679245,258.358491 C97.7464868,299.350943 140.998374,322.203472 177.603774,322.207547 L177.603774,320.849057 C152.166215,320.326038 124.73294,309.407849 109.775279,288.245283 C103.090649,278.787472 101.150785,268.191245 95.8679245,258.358491 M285.222642,258.358491 L286.584906,259.716981 L285.222642,258.358491 M204.849057,327.641509 L204.849057,329 C226.400075,323.134038 244.496392,309.83034 263.426415,298.575245 C286.712958,284.730868 310.301925,272.238189 334.264151,259.716981 C323.799238,257.978113 305.189347,271.632302 296.120755,276.805434 C265.95614,294.012075 237.397634,315.048302 204.849057,327.641509 M341.075472,258.358491 L339.713208,261.075472 L341.075472,258.358491 M361.0558,258.810868 L361.963068,259.264604 L361.0558,258.810868 M398.290566,258.358491 L399.65283,259.716981 L398.290566,258.358491 Z" id="Shape"></path>
                <polygon id="Path" points="234 260 242 267 242 265.6"></polygon>
                <path d="M283.363768,260 L279.272847,262.758621 L279.272847,264.137931 L284.727408,261.37931 L283.363768,260 M303.818372,260 L237,298.62069 L237,300 L305.182012,261.37931 L303.818372,260 M312.000213,260 L313.363853,261.37931 L312.000213,260 M378.818585,261.37931 L378.818585,262.758621 L384.273146,261.37931 L378.818585,261.37931 M396.091816,260.45931 L397,260.92 L396.091816,260.45931 Z" id="Shape"></path>
                <path d="M248,260 L250,262 L248,260 Z" id="Path"></path>
                <path d="M275.091202,261 L276.454841,262.360837 L275.091202,261 M309.182155,261 L310.545793,262.360837 L309.182155,261 M333.727641,262.360837 L333.727641,263.721675 L339.182194,262.360837 L333.727641,262.360837 M355.545851,265.082512 L355.545851,266.44335 L369.182232,262.360837 L355.545851,265.082512 M362.364041,271.886699 L362.364041,273.247537 L393.727718,262.360837 C385.015434,259.949434 370.659052,268.692814 362.364041,271.886699 M303.727603,265.082512 L307.818517,263.721675 L303.727603,265.082512 M351.454937,262.360837 L352.818575,263.721675 L351.454937,262.360837 M371.909508,263.721675 L371.909508,265.082512 L377.364061,263.721675 L371.909508,263.721675 M400.091817,262.813996 L401,263.268516 L400.091817,262.813996 M50.0909143,263.721675 L55.5454668,292.299261 L56.9091049,292.299261 C56.7233774,283.321816 56.4712407,270.489119 50.0909143,263.721675 M91.0000576,263.721675 C94.5727895,304.563127 133.311021,329.037788 171.454706,329.041871 L171.454706,327.681033 C145.2974,327.142142 119.730549,315.570941 104.763257,293.660098 C98.369158,284.297537 96.745065,273.095123 91.0000576,263.721675 M271.000288,263.721675 L272.363926,265.082512 L271.000288,263.721675 M276.454841,263.721675 L277.818479,265.082512 L276.454841,263.721675 M331.000365,263.721675 C304.158512,279.356336 264.190279,291.435129 243.727526,315.433497 L332.364003,265.082512 L331.000365,263.721675 M346.000384,266.44335 L350.091298,265.082512 L346.000384,266.44335 M395.091356,263.721675 L396.454994,265.082512 L395.091356,263.721675 M84.1818671,265.082512 L84.1818671,269.165025 L85.5455052,269.165025 L84.1818671,265.082512 M268.273012,265.082512 L269.63665,266.44335 L268.273012,265.082512 M273.727564,265.082512 L271.000288,266.44335 L271.000288,267.804187 L273.727564,265.082512 M298.27305,267.804187 L302.363965,266.44335 L298.27305,267.804187 M365.091318,266.44335 L365.091318,267.804187 L370.54587,266.44335 L365.091318,266.44335 M392.36408,265.082512 L393.727718,266.44335 L392.36408,265.082512 M265.545736,266.44335 L264.182098,269.165025 L265.545736,266.44335 M342.819016,266.896509 L343.727199,267.351028 L342.819016,266.896509 M335.091279,274.608374 L335.091279,275.969212 L354.182213,267.804187 L335.091279,274.608374 M389.182712,266.896509 L390.090895,267.351028 L389.182712,266.896509 M295.545774,267.804187 L258.727545,289.577586 L258.727545,290.938423 L296.909412,269.165025 L295.545774,267.804187 M339.182194,267.804187 L340.545832,269.165025 L339.182194,267.804187 M362.364041,267.804187 L363.72768,269.165025 L362.364041,267.804187 M385.545889,267.804187 L386.909527,269.165025 L385.545889,267.804187 M71.9091241,269.165025 L71.9091241,274.608374 L73.2727622,274.608374 L71.9091241,269.165025 M261.454821,269.165025 L241.00025,280.051724 L241.00025,281.412561 L262.818459,270.525862 L261.454821,269.165025 M266.909374,269.165025 L268.273012,270.525862 L266.909374,269.165025 M336.454917,269.165025 L337.818555,270.525862 L336.454917,269.165025 M359.182674,269.618183 L360.090857,270.072703 L359.182674,269.618183 M381.454975,269.165025 L382.818613,270.525862 L381.454975,269.165025 M46,270.525862 L50.0909143,295.020935 L51.4545524,295.020935 C51.388416,287.04915 51.4126887,276.736724 46,270.525862 M78.7273146,270.525862 C80.5436806,310.188829 117.036,346.994038 157.818325,342.650245 L157.818325,341.289408 C130.170562,341.213201 103.315073,326.442671 90.0782383,301.825123 C84.743686,291.904618 83.9186849,280.200055 78.7273146,270.525862 M85.5455052,270.525862 L85.5455052,274.608374 L86.9091433,274.608374 L85.5455052,270.525862 M333.727641,270.525862 L335.091279,271.886699 L333.727641,270.525862 M351.454937,271.886699 L351.454937,273.247537 L356.909489,271.886699 L351.454937,271.886699 M377.364061,270.525862 L378.727699,271.886699 L377.364061,270.525862 M249.182078,271.886699 L246.454802,273.247537 L246.454802,274.608374 L249.182078,271.886699 M331.000365,271.886699 L332.364003,273.247537 L331.000365,271.886699 M370.54587,273.247537 L370.54587,274.608374 L376.000423,273.247537 L370.54587,273.247537 M260.091183,273.247537 L256.000269,275.969212 L256.000269,277.330049 L261.454821,274.608374 L260.091183,273.247537 M328.273089,273.247537 L326.909451,275.969212 L328.273089,273.247537 M348.72766,273.247537 L350.091298,274.608374 L348.72766,273.247537 M355.545851,274.608374 L355.545851,275.969212 L361.000403,274.608374 L355.545851,274.608374 M346.000384,274.608374 L347.364022,275.969212 L346.000384,274.608374 Z" id="Shape"></path>
                <path d="M407,275 L407,276.342857 C424.137187,286.198086 443.942301,292.102629 462.666667,298.275743 C497.412171,309.731657 537.067203,321.899286 574,322 L574,320.657143 L488.463415,303.355771 L407,275 Z" id="Path"></path>
                <path d="M72.0087719,276 L72.0087719,281.454545 L73.372807,281.454545 L72.0087719,276 M85.6491228,276 C91.5553947,315.421364 129.646075,336 166.127193,336 L166.127193,334.636364 C140.398763,334.423636 116.228061,324.017727 100.517105,303.272727 C94.0884079,294.784091 91.2130219,284.796818 85.6491228,276 M331.175439,276 L332.539474,277.363636 L331.175439,276 M336.631579,278.727273 L336.631579,280.090909 L343.451754,277.363636 L336.631579,278.727273 M351.635965,276 L353,277.363636 L351.635965,276 M42,277.363636 L42,281.454545 L43.3640351,281.454545 L42,277.363636 M252.061404,277.363636 L245.241228,281.454545 L245.241228,282.818182 L253.425439,278.727273 L252.061404,277.363636 M320.263158,277.363636 L321.627193,278.727273 L320.263158,277.363636 M328.447368,277.363636 L329.811404,278.727273 L328.447368,277.363636 M348.907895,277.363636 L350.27193,278.727273 L348.907895,277.363636 Z" id="Shape"></path>
                <path d="M400,277 L400,278.368421 C454.123516,301.051368 514.036609,328.960316 574,329 L574,327.631579 L484.28125,308.439474 L429.90625,289.036632 L400,277 Z" id="Path"></path>
                <path d="M317.621369,278 L318.985805,279.363636 L317.621369,278 M325.807982,278 L327.172417,279.363636 L325.807982,278 M314.892498,279.363636 C274.557057,304.04 233.030464,336.411364 188,351.636364 L188,353 C208.104957,349.43 228.353179,335.182727 245.30629,324.435909 C268.744562,309.579091 293.249823,296.226364 316.256934,280.727273 L314.892498,279.363636 M343.091286,279.817727 L344,280.273182 L343.091286,279.817727 Z" id="Shape"></path>
                <path d="M393,280 L393,281.380952 C453.523406,302.28719 508.73385,332.773095 574,338 L574,335.238095 C533.24506,331.974905 492.21794,318.930429 454.240602,304.271619 C434.774256,296.756476 413.537376,283.123714 393,280 Z" id="Path"></path>
                <path d="M237,281 L239,283 L237,281 Z" id="Path"></path>
                <polygon id="Path" points="250 284.5 250 286 257 283"></polygon>
                <path d="M339.637755,282 L210.22449,360.644068 L210.22449,362 C230.444291,357.384407 250.691337,339.369492 267.438776,327.722034 C291.13775,311.239322 316.122684,297.808814 341,283.355932 L339.637755,282 M74,283.355932 C77.4383061,325.258305 113.156367,351.152542 153.010204,351.152542 L153.010204,349.79661 C124.736811,349.56339 99.9412296,336.113898 85.5164184,311.830508 C80.1914031,302.867797 78.9068061,292.343051 74,283.355932 M230.658163,288.779661 L230.658163,290.135593 L244.280612,284.711864 L230.658163,288.779661 M316.479592,286.067797 L320.566327,284.711864 L316.479592,286.067797 M326.015306,286.067797 L330.102041,284.711864 L326.015306,286.067797 Z" id="Shape"></path>
                <path d="M388,282 L388,283.377778 C403.855588,292.7508 421.446912,298.830933 438.330882,306.0064 C479.617169,323.553778 527.572978,343.050711 573,344 L573,341.244444 C534.709081,338.158222 494.256654,326.083378 458.735294,311.692489 C435.400809,302.238178 412.107132,289.0308 388,282 Z" id="Path"></path>
                <path d="M43,285 L43.4549296,285.99925 L43,285 M323.635484,285.499625 L325,287 L323.635484,285.499625 Z" id="Shape"></path>
                <path d="M380,286 L380,287.367347 C441.921521,313.299082 504.929169,350.024653 574,353 L574,350.265306 C531.273549,344.832837 488.037507,332.551327 448.309859,316.065224 C426.706183,307.100898 402.886535,290.082898 380,286 Z" id="Path"></path>
                <path d="M310.777778,287 L309.416667,289.75 L310.777778,287 M320.305556,287 L321.666667,288.375 L320.305556,287 M44,288.375 L44,298 L45.3611111,298 L44,288.375 M238.638889,288.375 L229.111111,293.875 L229.111111,295.25 L240,289.75 L238.638889,288.375 M312.138889,291.125 L312.138889,292.5 L318.944444,289.75 L312.138889,291.125 M336.638889,288.375 L338,289.75 L336.638889,288.375 Z" id="Shape"></path>
                <path d="M374,288 L374,289.365385 C437.4,319.070692 502.74966,353.348673 574,359 L557.673469,353.265385 L516.857143,344.139154 L425.70068,311.401327 L374,288 Z" id="Path"></path>
                <path d="M307.167488,290 L308.527094,291.358491 L307.167488,290 M255.502463,291.358491 L217.433498,311.735849 L217.433498,313.09434 C226.618995,310.450717 252.817241,301.047245 255.502463,291.358491 M304.448276,291.358491 L300.369458,294.075472 L300.369458,295.433962 L305.807882,292.716981 L304.448276,291.358491 M331.640394,291.358491 L333,292.716981 L331.640394,291.358491 M309.8867,292.716981 L305.807882,295.433962 L305.807882,296.792453 L311.246305,294.075472 L309.8867,292.716981 M328.921182,292.716981 L222.871921,360.641509 L222.871921,362 L263.660099,336.452226 L330.280788,294.075472 L328.921182,292.716981 M57,294.075472 L58.3596059,306.301887 L59.7192118,306.301887 L57,294.075472 Z" id="Shape"></path>
                <polygon id="Path" points="362 293 362 294.4 375 300 375 298.6"></polygon>
                <path d="M297.184211,295 L295.821053,297.734694 L297.184211,295 M227.663158,299.102041 L231.752632,297.734694 L227.663158,299.102041 M302.636842,296.367347 C268.042621,317.609082 235.336374,344.904061 197.673684,360.632653 L197.673684,362 C235.479505,351.154204 271.784489,319.516531 304,297.734694 L302.636842,296.367347 M45,299.102041 L45,310.040816 L46.3631579,310.040816 L45,299.102041 M50.9069721,300.014061 L51.3614489,300.924714 L50.9069721,300.014061 M224.936842,299.102041 L226.3,300.469388 L224.936842,299.102041 M233.115789,299.102041 L227.663158,301.836735 L227.663158,303.204082 L234.478947,300.469388 L233.115789,299.102041 M289.005263,300.469388 L290.368421,301.836735 L289.005263,300.469388 Z" id="Shape"></path>
                <polygon id="Path" points="346 301 360 310 360 308.714286"></polygon>
                <path d="M218.454545,302 L219.818182,303.363636 L218.454545,302 M286.636364,302 C254.314091,323.387273 219.943636,348.056818 183,360.636364 L183,362 C220.47,353.12 256.584545,324.557273 288,303.363636 L286.636364,302 M218.454545,306.090909 L218.454545,307.454545 L226.636364,304.727273 L218.454545,306.090909 Z" id="Shape"></path>
                <polygon id="Path" points="340 305 348 310 348 308.75"></polygon>
                <path d="M59.6666,308.334 L60.3334,309.666 L59.6666,308.334 Z" id="Path"></path>
                <path d="M333.142857,307 L333.142857,308.363636 L358,322 L358,320.636364 L333.142857,307 M329,309.727273 L335.904762,315.181818 L335.904762,313.818182 L329,309.727273 Z" id="Shape"></path>
                <polygon id="Path" points="61 312 62.5 317 64 317"></polygon>
                <polygon id="Path" points="322 313 330 318 330 316.75"></polygon>
                <path d="M47,314 L47,320.875 L48.3636364,320.875 L47,314 M69.2722727,314.917125 L69.7277273,315.832875 L69.2722727,314.917125 M240.636364,315.375 L202.454545,334.625 L202.454545,336 L242,316.75 L240.636364,315.375 Z" id="Shape"></path>
                <polygon id="Path" points="318 317 332 326 332 324.714286"></polygon>
                <path d="M69.8421053,318 C75.3951579,337.369625 93.8606316,360.131375 115,362 L115,360.625 C92.0461053,353.981 83.7302105,334.825875 69.8421053,318 M63,319.375 L64.3684211,326.25 L65.7368421,326.25 L63,319.375 Z" id="Shape"></path>
                <polygon id="Path" points="311 320 311 321.25 319 325 319 323.75"></polygon>
                <path d="M48,322 L48,326.137931 L49.3688525,326.137931 L48,322 M56.2131148,323.37931 C58.2851467,337.517241 67.0385475,356.364138 80.852459,362 L56.2131148,323.37931 M65.795082,327.517241 C69.7538033,341.335172 81.5423607,358.235862 95.9098361,362 L95.9098361,360.62069 L65.795082,327.517241 M49.825091,329.816552 L50.2814664,330.735172 L49.825091,329.816552 M201.311475,328.896552 L202.680328,330.275862 L201.311475,328.896552 M50.7377049,334.413793 L52.1065574,335.793103 L50.7377049,334.413793 M199.942623,335.793103 L201.311475,337.172414 L199.942623,335.793103 M213.631148,335.793103 L215,337.172414 L213.631148,335.793103 M52.1065574,337.172414 C54.8506959,346.753103 60.5455328,356.05931 68.5327869,362 L52.1065574,337.172414 M209.52459,337.172414 L188.991803,345.448276 L188.991803,346.827586 L210.893443,338.551724 L209.52459,337.172414 M186.254098,346.827586 L187.622951,348.206897 L186.254098,346.827586 M181.691713,355.562759 L182.603369,356.023448 L181.691713,355.562759 M178.040984,356.482759 L179.409836,357.862069 L178.040984,356.482759 Z" id="Shape"></path>
            </g>
        </g>
    </g>
</svg>